<?xml version="1.0" encoding="UTF-8"?>
<!DOCTYPE svg PUBLIC "-//W3C//DTD SVG 1.1//EN" "http://www.w3.org/Graphics/SVG/1.1/DTD/svg11.dtd">
<!-- Creator: CorelDRAW -->
<svg xmlns="http://www.w3.org/2000/svg" xml:space="preserve" width="4.4095mm" height="3.3392mm" version="1.1" style="shape-rendering:geometricPrecision; text-rendering:geometricPrecision; image-rendering:optimizeQuality; fill-rule:evenodd; clip-rule:evenodd"
viewBox="0 0 52.4 39.68"
 xmlns:xlink="http://www.w3.org/1999/xlink"
 xmlns:xodm="http://www.corel.com/coreldraw/odm/2003">
 <defs>
  <style type="text/css">
   <![CDATA[
    .fil0 {fill:black}
   ]]>
  </style>
 </defs>
 <g id="Camada_x0020_1">
  <metadata id="CorelCorpID_0Corel-Layer"/>
  <path class="fil0" d="M1.78 12.46l48.84 0 0 22.39c0,1.64 -0.95,3.05 -2.54,3.05l-43.75 0c-1.59,0 -2.54,-1.41 -2.54,-3.05l0 -22.39zm0 -7.63c0,-1.64 0.95,-3.05 2.54,-3.05l43.75 0c3.38,0 2.54,5.26 2.54,8.9l-48.84 0 0 -5.85zm-1.78 30.53c0,2.07 1.86,4.32 3.82,4.32l44.77 0c1.96,0 3.82,-2.26 3.82,-4.32l0 -31.03c0,-2.07 -1.86,-4.32 -3.82,-4.32l-44.77 0c-1.96,0 -3.82,2.26 -3.82,4.32l0 31.03zm22.48 -12.31c-0.3,-0.99 -0.74,-2.43 -1.11,-3.21l-0.76 0c-1.3,0 -0.6,1.59 -0.35,2.39 0.31,1.01 0.57,1.72 0.89,2.67 1.05,3.11 0.57,3.72 2.26,4.61 0.82,-0.43 0.99,-0.25 1.29,-1.26l1.26 -5.61 1.62 5.76c0.3,0.87 0.51,0.75 1.18,1.11 1.19,-0.63 0.96,-0.42 1.43,-1.87 2.16,-6.65 3.2,-7.79 0.6,-7.79 -0.39,0.81 -0.7,2.19 -0.99,3.08 -0.28,0.84 -0.77,2.34 -0.79,3.28l-0.51 0c-0.04,-1.66 -0.95,-5.12 -1.78,-6.36l-1.27 0c-0.73,1.09 -1.78,5.13 -1.78,6.61l-0.72 -1.57c-0.18,-0.69 -0.25,-1.14 -0.46,-1.83zm19.75 6.46c1.27,-0.67 0.94,-0.32 1.37,-1.93 1.83,-6.78 3.61,-7.73 0.66,-7.73 -0.62,1.18 -1.69,5.14 -2.03,6.61l-0.37 -0.9c-0.11,-0.44 -0.08,-0.43 -0.16,-0.86 -0.26,-1.38 -0.86,-3.88 -1.51,-4.85l-1.53 0c-0.56,1.16 -1.44,5.17 -1.78,6.61l-2.04 -6.61c-2.54,0 -1.62,0.58 -0.16,5.5 0.99,3.34 0.6,3.32 2.19,4.17 1.38,-0.73 0.99,-0.39 1.68,-3.15 0.22,-0.9 0.86,-2.99 0.86,-3.71l0.25 0c0,1.3 0.49,2.84 0.81,4.02 0.67,2.48 0.4,2.14 1.73,2.85zm-32.31 -2.8c0,-1.22 -1.57,-5.98 -2.03,-6.87l-1.27 0c-0.39,1.62 0.39,2.64 1.12,5.24 0.75,2.71 0.91,3.75 2.19,4.42 0.54,-0.26 0.23,-0.19 1.02,-0.25 0.25,-1.06 0.56,-1.98 0.87,-3.21 0.26,-1.04 0.64,-2.08 0.66,-3.16 0.7,0.51 0.52,0.77 0.76,1.78l0.91 3.67c0.34,1.06 0.31,0.73 1.13,1.16 0.54,-0.26 0.23,-0.19 1.02,-0.25 0.32,-1.38 0.89,-2.8 1.37,-4.23 1.52,-4.51 1.81,-5.18 -0.35,-5.18 -0.41,1.75 -1.78,5.34 -1.78,6.61l-2.03 -6.61 -1.53 0c-0.55,0.83 -0.37,0.43 -0.66,1.63 -0.36,1.48 -1.12,3.91 -1.12,5.24l-0.25 0zm34.85 -19.84c0,-0.88 -0.15,-1.52 0.76,-1.52 0.68,0 0.75,0.37 1.02,0.76 -0.57,1.08 -0.56,1.05 -1.78,0.76zm0.76 2.04c3.38,0 4.08,-5.34 -0.25,-5.34 -1.46,0 -2.56,1.38 -2.44,2.72 0.14,1.6 1.25,2.62 2.7,2.62zm-7.63 -2.8c0,-1.29 1.78,-0.87 1.78,0.25 0,0.82 -1.78,1.19 -1.78,-0.25zm-1.78 -0.25c0,5.73 7.67,2.22 4.74,-1.43 -1.29,-1.61 -4.74,-1 -4.74,1.43zm-5.09 0.25c0,-1.09 1.78,-1.09 1.78,0 0,1.32 -1.78,1.35 -1.78,0zm-1.78 -0.25c0,4.26 5.34,3.8 5.34,0.25 0,-3.49 -5.34,-3.3 -5.34,-0.25z"/>
 </g>
</svg>
