<?xml version="1.0" encoding="UTF-8"?>
<!DOCTYPE svg PUBLIC "-//W3C//DTD SVG 1.1//EN" "http://www.w3.org/Graphics/SVG/1.1/DTD/svg11.dtd">
<!-- Creator: CorelDRAW -->
<svg xmlns="http://www.w3.org/2000/svg" xml:space="preserve" width="2.8992mm" height="2.1535mm" version="1.1" style="shape-rendering:geometricPrecision; text-rendering:geometricPrecision; image-rendering:optimizeQuality; fill-rule:evenodd; clip-rule:evenodd"
viewBox="0 0 19.03 14.14"
 xmlns:xlink="http://www.w3.org/1999/xlink"
 xmlns:xodm="http://www.corel.com/coreldraw/odm/2003">
 <defs>
  <style type="text/css">
   <![CDATA[
    .fil0 {fill:#050608}
   ]]>
  </style>
 </defs>
 <g id="Camada_x0020_1">
  <metadata id="CorelCorpID_0Corel-Layer"/>
  <path class="fil0" d="M9.51 8.64c1.98,0 -0.15,-1.27 4.01,1.8 0.29,0.21 3.38,2.48 3.56,2.69l-15.14 0.01c0.17,-0.21 1.43,-1.11 1.77,-1.36l4.49 -3.34c0.34,-0.16 0.39,0.21 1.32,0.21zm2.04 -0.97c0.35,-0.15 4.25,-3.5 4.82,-3.94 0.28,-0.21 0.52,-0.42 0.79,-0.64 0.29,-0.23 0.53,-0.51 0.87,-0.69l-0 10.17c-0.23,-0.09 -4.42,-3.26 -4.87,-3.59l-1.53 -1.17c-0.01,-0.01 -0.02,-0.03 -0.03,-0.04 -0.01,-0.02 -0.04,-0.08 -0.06,-0.1zm-10.55 4.9c-0.1,-2.73 -0.02,-6.71 -0.02,-9.57l0 -0.6c0.31,0.17 4.36,3.57 4.85,3.97 0.35,0.29 1.32,1.17 1.64,1.3 -0.09,0.21 -0.05,0.15 -0.36,0.38l-6.11 4.52zm16.58 -11.57c0.16,0 0.26,0.04 0.36,0.08 -0.03,0.22 -2.73,2.36 -3.11,2.68l-4.18 3.45c-1.42,1.15 -2.32,-0.03 -3.62,-1.11 -0.69,-0.57 -1.42,-1.14 -2.09,-1.72l-3.15 -2.61c-0.39,-0.33 -1.12,-0.77 -0.35,-0.77l16.14 0zm-17.54 12.01c0.21,1.37 1.79,1.09 3.03,1.09l12.38 0c1.48,0 2.93,0.28 3.42,-0.74 0.24,-0.51 0.13,-3.22 0.13,-3.98l-0.02 -8.23c-0.19,-1.39 -1.73,-1.11 -3.03,-1.11l-12.38 0c-1.52,0 -2.94,-0.28 -3.42,0.74 -0.24,0.5 -0.12,3.17 -0.12,3.98l0.01 8.26z"/>
 </g>
</svg>
