<?xml version="1.0" encoding="UTF-8"?>
<!DOCTYPE svg PUBLIC "-//W3C//DTD SVG 1.1//EN" "http://www.w3.org/Graphics/SVG/1.1/DTD/svg11.dtd">
<!-- Creator: CorelDRAW -->
<svg xmlns="http://www.w3.org/2000/svg" xml:space="preserve" width="3.4335mm" height="3.0428mm" version="1.1" style="shape-rendering:geometricPrecision; text-rendering:geometricPrecision; image-rendering:optimizeQuality; fill-rule:evenodd; clip-rule:evenodd"
viewBox="0 0 22.68 20.1"
 xmlns:xlink="http://www.w3.org/1999/xlink"
 xmlns:xodm="http://www.corel.com/coreldraw/odm/2003">
 <defs>
  <style type="text/css">
   <![CDATA[
    .fil0 {fill:#010101}
   ]]>
  </style>
 </defs>
 <g id="Camada_x0020_1">
  <metadata id="CorelCorpID_0Corel-Layer"/>
  <g id="_2697412041392">
   <path class="fil0" d="M4.06 15.39c0.02,-1.77 0,-3.55 0,-5.32 0,-1.85 -0.11,-3.19 0.66,-4.71 2.75,-5.45 10.34,-5.57 13.2,-0.03 0.77,1.49 0.68,2.87 0.68,4.7 0,1.78 -0.03,3.58 0,5.37 2.95,0.14 5.3,-3.48 3.37,-6.33 -0.41,-0.61 -1.23,-1.38 -2.13,-1.58 -0.27,-1.78 -0.83,-2.94 -1.7,-4.12 -0.7,-0.95 -1.93,-2.01 -3.28,-2.6 -5.35,-2.34 -11.02,1.05 -11.96,6.21 -0.14,0.76 0.07,0.35 -0.71,0.76 -0.18,0.1 -0.3,0.17 -0.46,0.28 -0.86,0.58 -1.5,1.58 -1.68,2.71 -0.38,2.44 1.63,4.8 4.02,4.67z"/>
   <path class="fil0" d="M11.53 19.32c0.07,-0.35 -0.11,-0.73 -0.29,-0.88 -0.26,-0.22 -0.6,-0.24 -1.02,-0.24 -0.84,0 -1.56,-0.03 -1.72,0.75 -0.08,0.43 0.12,0.73 0.33,0.92 0.29,0.25 0.59,0.22 1.01,0.22 0.59,-0 1.49,0.14 1.68,-0.77z"/>
   <path class="fil0" d="M3.46 15.72c-0.15,1.37 0.53,2.47 1.24,3.02 1,0.77 2.02,0.79 3.53,0.71l0 -0.6c-1.23,-0.09 -2.21,0.16 -3.09,-0.55 -0.99,-0.81 -1.02,-1.45 -1.08,-2.58l-0.59 -0z"/>
  </g>
 </g>
</svg>
