<?xml version="1.0" encoding="UTF-8"?>
<!DOCTYPE svg PUBLIC "-//W3C//DTD SVG 1.1//EN" "http://www.w3.org/Graphics/SVG/1.1/DTD/svg11.dtd">
<!-- Creator: CorelDRAW -->
<svg xmlns="http://www.w3.org/2000/svg" xml:space="preserve" width="3.6899mm" height="3.5796mm" version="1.1" style="shape-rendering:geometricPrecision; text-rendering:geometricPrecision; image-rendering:optimizeQuality; fill-rule:evenodd; clip-rule:evenodd"
viewBox="0 0 31.81 30.86"
 xmlns:xlink="http://www.w3.org/1999/xlink"
 xmlns:xodm="http://www.corel.com/coreldraw/odm/2003">
 <defs>
  <style type="text/css">
   <![CDATA[
    .fil0 {fill:black}
   ]]>
  </style>
 </defs>
 <g id="Camada_x0020_1">
  <metadata id="CorelCorpID_0Corel-Layer"/>
  <path class="fil0" d="M8.2 12.41l2.42 0 0 8.62 -2.42 0 0 -8.62zm4.54 0.6c1.81,0 2.25,-1.8 2.88,-3.02 0.86,-1.68 0.56,-1.93 0.59,-3.8 0.03,-2.11 2.14,-0.23 2.14,1.23 0,4.85 -3.15,4.11 3.64,4.23 2.6,0.05 1.35,1.9 1.35,2.43 0,0.74 1,1.15 -0.45,2.12 0,1.53 0.19,1.49 -0.76,2.12 0,0.88 0.01,1.12 -0.15,1.82 -1.25,0.6 -8.3,0.3 -10.14,0.3l0 -7.41 0.91 0zm6.35 -2.57c0.17,-0.71 0.45,-1.43 0.45,-2.27 0,-2.04 -0.97,-4.09 -2.57,-4.09 -2.73,0 -1.83,2.52 -1.97,4.08 -0.06,0.62 -1.38,3.63 -2.12,3.63 -2.42,0 -0.64,-0.61 -2.12,-0.61 -1.41,0 -2.61,-0.12 -3.78,0.15 0,1.92 0,3.83 0,5.75 0,6.11 -0.91,5.14 3.93,5.14 0.49,0 0.42,-0.35 0.84,-0.53 0.48,-0.2 8.14,-0.04 9,-0.08 0.74,-0.03 1.5,-0.27 1.93,-0.64 0.74,-0.65 0.42,-0.89 0.69,-1.89 0.22,-0.82 0.48,0.01 0.72,-1.85 0.08,-0.62 0.12,-0.49 0.42,-0.94 0.71,-1.06 0.11,-1.92 0.11,-2.24 0,-0.43 0.22,-0.29 0.22,-0.91 0,-3.08 -2.37,-2.72 -5.75,-2.72zm7.56 15.89c2.78,0 5.14,-2.11 5.14,-4.84 0,-1.89 0.21,-2.26 -1.06,-1.97 -0.21,0.91 -0.02,1.8 -0.21,2.67 -0.13,0.62 -0.67,1.47 -1.03,1.84 -0.42,0.42 -1.14,0.86 -1.86,1.01 -3.08,0.66 -2.79,-1.55 -2.79,3.71 -2.57,-1.72 -2.45,-3.65 -4.84,-3.64 -2.84,0.02 -15.13,0.25 -16.39,-0.25 -0.58,-0.23 -1.21,-0.7 -1.56,-1.16 -1.06,-1.42 -0.81,-2.34 -0.81,-4.63 0,-1.87 0,-3.73 0,-5.6 0,-1.47 0.34,-4.84 -0.61,-4.84 -0.35,0 -0.61,0.25 -0.61,0.61l0 12.56c0,1.52 1.37,3.3 2.58,3.93 0.34,0.18 1.09,0.47 1.56,0.56 1.28,0.23 10.37,0.06 12.96,0.06 1.41,0 3.31,-0.23 3.91,0.33 0.61,0.56 3.9,4.21 4.41,4.21 0.35,0 0.61,-0.25 0.61,-0.61l0 -3.93 0.61 0zm-26.02 -19.37c0.78,0 0.6,-1.18 0.6,-1.97 -0,-0.9 0.18,-1.31 0.5,-1.92 0.48,-0.88 1.7,-1.86 2.98,-1.86l22.39 0c2.09,0 3.5,1.79 3.48,4.23l-0 7.72c0,1.07 -0.4,4.54 0.61,4.54 0.35,0 0.61,-0.25 0.61,-0.61l0 -12.56c0,-2.13 -2.41,-4.54 -4.54,-4.54l-22.69 0c-2.03,0 -4.54,2.19 -4.54,4.69 0,1.15 -0.23,2.27 0.61,2.27z"/>
 </g>
</svg>
