<?xml version="1.0" encoding="UTF-8"?>
<!DOCTYPE svg PUBLIC "-//W3C//DTD SVG 1.1//EN" "http://www.w3.org/Graphics/SVG/1.1/DTD/svg11.dtd">
<!-- Creator: CorelDRAW -->
<svg xmlns="http://www.w3.org/2000/svg" xml:space="preserve" width="5.0915mm" height="3.6159mm" version="1.1" style="shape-rendering:geometricPrecision; text-rendering:geometricPrecision; image-rendering:optimizeQuality; fill-rule:evenodd; clip-rule:evenodd"
viewBox="0 0 77.27 54.88"
 xmlns:xlink="http://www.w3.org/1999/xlink"
 xmlns:xodm="http://www.corel.com/coreldraw/odm/2003">
 <defs>
  <style type="text/css">
   <![CDATA[
    .fil0 {fill:black}
   ]]>
  </style>
 </defs>
 <g id="Camada_x0020_1">
  <metadata id="CorelCorpID_0Corel-Layer"/>
  <g id="_2698161009280">
   <path class="fil0" d="M-0 4.89l0 37.35c0,1.93 1.2,3.63 2.8,4.29 0.48,0.2 1.28,0.48 1.9,0.48l17.71 0 0 5.22 -4.96 0 0 2.64 19.96 0 0 -2.64 -4.96 0 0 -5.22 7.47 0 0 -2.45c0,-0.3 -0.5,-0.19 -1.03,-0.19l-28.91 0c-1.67,0 -3.35,0.02 -5.03,0 -0.8,-0.01 -1.34,-0.34 -1.75,-0.76 -0.44,-0.45 -0.69,-1.02 -0.69,-1.88l0 -5.15 37.41 0 0 -2.64 -37.41 0 0 -28.72c0,-1.54 1.12,-2.58 2.58,-2.58l44.56 0c1.94,0 2.7,1.22 2.7,3.16l0 6.7 2.51 0 0 -7.28c0,-2.24 -1.05,-3.98 -2.86,-4.74 -0.56,-0.23 -1.34,-0.48 -2.1,-0.48l-44.88 0c-1.93,0 -3.9,1.1 -4.58,2.82 -0.23,0.58 -0.44,1.24 -0.44,2.07z"/>
   <path class="fil0" d="M56.15 53.58c-0.44,0 -0.64,-0.08 -0.94,-0.35 -0.71,-0.65 -0.32,-2.1 0.87,-2.1 1.01,0 1.68,1.27 0.87,2.09 -0.01,0.01 -0.02,0.02 -0.03,0.03l-0.25 0.2c-0.14,0.08 -0.3,0.13 -0.51,0.13zm-13.78 -36.25l0 35.22c0,0.63 0.4,1.27 0.72,1.6 0.35,0.35 0.99,0.72 1.66,0.72l15.07 0 0 -5.02 -14.94 0 0 -31.1 22.41 0 0 8.69 2.51 0 0 -10.11c0,-1.31 -1.19,-2.38 -2.58,-2.38l-22.28 0c-0.77,0 -1.36,0.3 -1.78,0.66 -0.43,0.37 -0.79,1.1 -0.79,1.72z"/>
   <path class="fil0" d="M64.84 32.46l9.92 0 0 17.39 -9.92 0 0 -17.39zm-2.58 -0.97l0 21.76c0,0.72 0.17,1.02 0.56,1.37 0.38,0.34 1.01,0.24 1.69,0.24 1.29,0 2.58,0 3.86,0 -0.19,-0.12 -0.34,-0.04 -0.73,-0.43 -0.24,-0.25 -0.33,-0.46 -0.33,-0.85 0.01,-0.28 0.07,-0.5 0.23,-0.71 1.17,-1.56 3.3,0.77 1.6,1.79 -0.07,0.04 -0.12,0.06 -0.22,0.1l6.99 0.1c0.45,0 0.67,-0.09 0.92,-0.31 0.17,-0.15 0.43,-0.51 0.43,-0.79l0 -22.67c0,-0.81 -0.72,-1.22 -1.54,-1.22l-11.91 0c-1.05,0 -1.54,0.57 -1.54,1.61z"/>
   <path class="fil0" d="M26.14 40.5c0,0.66 0.47,1.29 1.35,1.29 0.59,0 1.16,-0.57 1.16,-1.16 0,-0.47 -0,-0.8 -0.4,-1.14 -0.99,-0.85 -2.11,0.04 -2.11,1.01z"/>
  </g>
 </g>
</svg>
