<?xml version="1.0" encoding="UTF-8"?>
<!DOCTYPE svg PUBLIC "-//W3C//DTD SVG 1.1//EN" "http://www.w3.org/Graphics/SVG/1.1/DTD/svg11.dtd">
<!-- Creator: CorelDRAW -->
<svg xmlns="http://www.w3.org/2000/svg" xml:space="preserve" width="3.4546mm" height="3.4546mm" version="1.1" style="shape-rendering:geometricPrecision; text-rendering:geometricPrecision; image-rendering:optimizeQuality; fill-rule:evenodd; clip-rule:evenodd"
viewBox="0 0 22.89 22.89"
 xmlns:xlink="http://www.w3.org/1999/xlink"
 xmlns:xodm="http://www.corel.com/coreldraw/odm/2003">
 <defs>
  <style type="text/css">
   <![CDATA[
    .fil0 {fill:#030706}
   ]]>
  </style>
 </defs>
 <g id="Camada_x0020_1">
  <metadata id="CorelCorpID_0Corel-Layer"/>
  <path class="fil0" d="M19.5 16.61l0.21 0 0 0.02 0.02 0 0 0.02 0.02 0 0 0.02 0.02 0 0 0.02 0.02 0 0 0.02 0.02 0 0 0.02 0.02 0 0 0.02 0.02 0 0 0.02 0.02 0 0 0.05 0.02 0 0 0.02 0.02 0 0 0.02 0.02 0 0 0.02 0.02 0 0 0.02 0.02 0 0 0.02 0.02 0 0 0.02 0.05 0 0 0.05 0.02 0 0 0.18 -0.02 0 0 -0.02 -0.02 0 0 -0.02 -0.02 0 0 -0.02 -0.05 0 0 -0.02 -0.02 0 0 -0.05 -0.05 0 0 -0.02 -0.02 0 0 -0.02 -0.02 0 0 -0.02 -0.02 0 0 -0.02 -0.02 0 0 -0.02 -0.02 0 0 -0.02 -0.02 0 0 -0.02 -0.02 0 0 -0.02 -0.02 0 0 -0.02 -0.02 0 0 -0.02 -0.02 0 0 -0.02 -0.02 0 0 -0.02 -0.02 0 0 -0.02 -0.02 0 0 -0.02 -0.02 0 0 -0.02 -0.02 0 0 -0.02 -0.02 0 0 -0.02 -0.02 0 0 -0.05 -0.02 0 0 -0.02zm-16.43 -11.63l0.02 0 0 -0.02 0.02 0 0 -0.02 0.02 0 0 -0.05 0.02 0 0 -0.02 0.02 0 0 -0.02 0.02 0 0 -0.02 0.02 0 0 -0.05 0.02 0 0 -0.02 0.02 0 0 -0.02 0.02 0 0 -0.02 0.02 0 0 -0.05 0.02 0 0 -0.02 0.02 0 0 -0.02 0.02 0 0 -0.02 0.02 0 0 -0.02 0.02 0 0 -0.02 0.02 0 0 -0.05 0.02 0 0 -0.02 0.02 0 0 -0.02 0.02 0 0 -0.02 0.02 0 0 -0.02 0.02 0 0 -0.02 0.02 0 0 -0.02 0.02 0 0 -0.02 0.02 0 0 -0.02 0.02 0 0 -0.05 0.02 0 0 -0.02 0.02 0 0 -0.02 0.02 0 0 -0.02 0.02 0 0 -0.02 0.02 0 0 -0.02 0.02 0 0 -0.02 0.02 0 0 -0.02 0.02 0 0 -0.02 0.02 0 0 -0.02 0.02 0 0 -0.02 0.02 0 0 -0.02 0.02 0 0 -0.02 0.02 0 0 -0.02 0.02 0 0 -0.02 0.02 0 0 -0.02 0.02 0 0 -0.02 0.02 0 0 -0.02 0.02 0 0 -0.02 0.02 0 0 -0.02 0.02 0 0 -0.02 0.02 0 0 -0.02 0.02 0 0 -0.02 0.02 0 0 -0.02 0.02 0 0 -0.02 0.02 0 0 -0.02 0.02 0 0 -0.02 0.05 0 0 -0.02 0.02 0 0 -0.02 0.02 0 0 -0.02 0.02 0 0 -0.02 0.02 0 0 -0.02 0.02 0 0 -0.02 0.02 0 0 -0.02 0.02 0 0 -0.02 0.02 0 0 -0.02 0.05 0 0 -0.02 0.02 0 0 -0.02 0.02 0 0 -0.02 0.02 0 0 -0.02 0.02 0 0 -0.02 0.02 0 0 -0.02 0.05 0 0 -0.02 0.02 0 0 -0.02 0.02 0 0 -0.02 0.02 0 0 -0.02 0.05 0 0 -0.02 0.02 0 0 -0.02 0.02 0 0 -0.02 0.02 0 0 -0.02 0.05 0 0 -0.02 0.02 0 0 -0.02 0.02 0 0 -0.02 0.05 0 0 0.02 0.02 0 0 0.02 0.02 0 0 0.02 0.02 0 0 0.02 0.02 0 0 0.02 0.02 0 0 0.02 0.02 0 0 0.02 0.02 0 0 0.02 0.02 0 0 0.02 0.02 0 0 0.02 0.02 0 0 0.02 0.02 0 0 0.02 0.02 0 0 0.02 0.02 0 0 0.02 0.02 0 0 0.02 0.02 0 0 0.02 0.02 0 0 0.02 0.02 0 0 0.02 0.02 0 0 0.02 0.02 0 0 0.02 0.02 0 0 0.02 0.02 0 0 0.02 0.02 0 0 0.02 0.02 0 0 0.02 0.02 0 0 0.02 0.02 0 0 0.02 0.02 0 0 0.02 0.02 0 0 0.02 0.02 0 0 0.02 0.02 0 0 0.02 0.02 0 0 0.02 0.02 0 0 0.02 0.02 0 0 0.02 0.02 0 0 0.02 0.02 0 0 0.02 0.02 0 0 0.02 0.02 0 0 0.02 0.02 0 0 0.02 0.02 0 0 0.02 0.02 0 0 0.02 0.02 0 0 0.02 0.02 0 0 0.02 0.02 0 0 0.02 0.02 0 0 0.02 0.02 0 0 0.02 0.02 0 0 0.02 0.02 0 0 0.02 0.02 0 0 0.02 0.02 0 0 0.02 0.02 0 0 0.02 0.02 0 0 0.02 0.02 0 0 0.02 0.02 0 0 0.02 0.02 0 0 0.02 0.02 0 0 0.02 0.05 0 0 0.02 0.02 0 0 0.02 0.07 0 0 0.02 0.28 0 0 -0.02 0.05 0 0 -0.02 0.05 0 0 -0.02 0.02 0 0 -0.02 0.05 0 0 -0.02 0.02 0 0 -0.02 0.05 0 0 -0.02 0.05 0 0 -0.02 0.02 0 0 -0.02 0.05 0 0 -0.02 0.05 0 0 -0.02 0.02 0 0 -0.02 0.05 0 0 -0.02 0.05 0 0 -0.02 0.02 0 0 -0.02 0.05 0 0 -0.02 0.05 0 0 -0.02 0.05 0 0 -0.02 0.05 0 0 -0.02 0.02 0 0 -0.02 0.05 0 0 -0.02 0.05 0 0 -0.02 0.05 0 0 -0.02 0.05 0 0 -0.02 0.05 0 0 -0.02 0.05 0 0 -0.02 0.05 0 0 -0.02 0.05 0 0 -0.02 0.05 0 0 -0.02 0.05 0 0 -0.02 0.07 0 0 -0.02 0.05 0 0 -0.02 0.05 0 0 -0.02 0.05 0 0 -0.02 0.07 0 0 -0.02 0.05 0 0 -0.02 0.05 0 0 -0.02 0.07 0 0 -0.02 0.05 0 0 -0.02 0.07 0 0 -0.02 0.07 0 0 -0.02 0.05 0 0 -0.02 0.07 0 0 -0.02 0.07 0 0 -0.02 0.07 0 0 -0.02 0.07 0 0 -0.02 0.07 0 0 -0.02 0.07 0 0 -0.02 0.09 0 0 -0.02 0.07 0 0 -0.02 0.09 0 0 -0.02 0.09 0 0 -0.02 0.07 0 0 -0.02 0.09 0 0 -0.02 0.11 0 0 -0.02 0.09 0 0 -0.02 0.09 0 0 -0.02 0.07 0 0 -0.02 0.05 0 0 -0.02 0.05 0 0 -0.02 0.02 0 0 -0.02 0.02 0 0 -0.02 0.02 0 0 -0.02 0.02 0 0 -0.05 0.02 0 0 -0.05 0.02 0 0 -0.05 0.02 0 0 -1.86 0.09 0 0 -0.02 0.3 0 0 -0.02 0.25 0 0 -0.02 0.37 0 0 -0.02 0.67 0 0 0.02 0.44 0 0 0.02 0.25 0 0 0.02 0.3 0 0 0.02 0.09 0 0 1.86 0.02 0 0 0.05 0.02 0 0 0.05 0.02 0 0 0.05 0.02 0 0 0.02 0.02 0 0 0.02 0.02 0 0 0.02 0.05 0 0 0.02 0.02 0 0 0.02 0.05 0 0 0.02 0.07 0 0 0.02 0.09 0 0 0.02 0.09 0 0 0.02 0.11 0 0 0.02 0.09 0 0 0.02 0.07 0 0 0.02 0.09 0 0 0.02 0.09 0 0 0.02 0.07 0 0 0.02 0.09 0 0 0.02 0.07 0 0 0.02 0.07 0 0 0.02 0.07 0 0 0.02 0.07 0 0 0.02 0.07 0 0 0.02 0.05 0 0 0.02 0.07 0 0 0.02 0.07 0 0 0.02 0.07 0 0 0.02 0.05 0 0 0.02 0.07 0 0 0.02 0.05 0 0 0.02 0.05 0 0 0.02 0.07 0 0 0.02 0.05 0 0 0.02 0.05 0 0 0.02 0.05 0 0 0.02 0.07 0 0 0.02 0.05 0 0 0.02 0.05 0 0 0.02 0.05 0 0 0.02 0.05 0 0 0.02 0.05 0 0 0.02 0.05 0 0 0.02 0.05 0 0 0.02 0.05 0 0 0.02 0.05 0 0 0.02 0.05 0 0 0.02 0.02 0 0 0.02 0.05 0 0 0.02 0.05 0 0 0.02 0.05 0 0 0.02 0.05 0 0 0.02 0.02 0 0 0.02 0.05 0 0 0.02 0.05 0 0 0.02 0.02 0 0 0.02 0.05 0 0 0.02 0.05 0 0 0.02 0.02 0 0 0.02 0.05 0 0 0.02 0.05 0 0 0.02 0.02 0 0 0.02 0.05 0 0 0.02 0.02 0 0 0.02 0.05 0 0 0.02 0.05 0 0 0.02 0.28 0 0 -0.02 0.07 0 0 -0.02 0.02 0 0 -0.02 0.05 0 0 -0.02 0.02 0 0 -0.02 0.02 0 0 -0.02 0.02 0 0 -0.02 0.02 0 0 -0.02 0.02 0 0 -0.02 0.02 0 0 -0.02 0.02 0 0 -0.02 0.02 0 0 -0.02 0.02 0 0 -0.02 0.02 0 0 -0.02 0.02 0 0 -0.02 0.02 0 0 -0.02 0.02 0 0 -0.02 0.02 0 0 -0.02 0.02 0 0 -0.02 0.02 0 0 -0.02 0.02 0 0 -0.02 0.02 0 0 -0.02 0.02 0 0 -0.02 0.02 0 0 -0.02 0.02 0 0 -0.02 0.02 0 0 -0.02 0.02 0 0 -0.02 0.02 0 0 -0.02 0.02 0 0 -0.02 0.02 0 0 -0.02 0.02 0 0 -0.02 0.02 0 0 -0.02 0.02 0 0 -0.02 0.02 0 0 -0.02 0.02 0 0 -0.02 0.02 0 0 -0.02 0.02 0 0 -0.02 0.02 0 0 -0.02 0.02 0 0 -0.02 0.02 0 0 -0.02 0.02 0 0 -0.02 0.02 0 0 -0.02 0.02 0 0 -0.02 0.02 0 0 -0.02 0.02 0 0 -0.02 0.02 0 0 -0.02 0.02 0 0 -0.02 0.02 0 0 -0.02 0.02 0 0 -0.02 0.02 0 0 -0.02 0.02 0 0 -0.02 0.02 0 0 -0.02 0.02 0 0 -0.02 0.02 0 0 -0.02 0.02 0 0 -0.02 0.02 0 0 -0.02 0.02 0 0 -0.02 0.02 0 0 -0.02 0.05 0 0 0.02 0.02 0 0 0.02 0.02 0 0 0.02 0.05 0 0 0.02 0.02 0 0 0.02 0.02 0 0 0.02 0.02 0 0 0.02 0.05 0 0 0.02 0.02 0 0 0.02 0.02 0 0 0.02 0.02 0 0 0.02 0.05 0 0 0.02 0.02 0 0 0.02 0.02 0 0 0.02 0.02 0 0 0.02 0.02 0 0 0.02 0.02 0 0 0.02 0.05 0 0 0.02 0.02 0 0 0.02 0.02 0 0 0.02 0.02 0 0 0.02 0.02 0 0 0.02 0.02 0 0 0.02 0.02 0 0 0.02 0.02 0 0 0.02 0.02 0 0 0.02 0.05 0 0 0.02 0.02 0 0 0.02 0.02 0 0 0.02 0.02 0 0 0.02 0.02 0 0 0.02 0.02 0 0 0.02 0.02 0 0 0.02 0.02 0 0 0.02 0.02 0 0 0.02 0.02 0 0 0.02 0.02 0 0 0.02 0.02 0 0 0.02 0.02 0 0 0.02 0.02 0 0 0.02 0.02 0 0 0.02 0.02 0 0 0.02 0.02 0 0 0.02 0.02 0 0 0.02 0.02 0 0 0.02 0.02 0 0 0.02 0.02 0 0 0.02 0.02 0 0 0.02 0.02 0 0 0.02 0.02 0 0 0.02 0.02 0 0 0.02 0.02 0 0 0.02 0.02 0 0 0.05 0.02 0 0 0.02 0.02 0 0 0.02 0.02 0 0 0.02 0.02 0 0 0.02 0.02 0 0 0.02 0.02 0 0 0.02 0.02 0 0 0.02 0.02 0 0 0.02 0.02 0 0 0.05 0.02 0 0 0.02 0.02 0 0 0.02 0.02 0 0 0.02 0.02 0 0 0.02 0.02 0 0 0.02 0.02 0 0 0.05 0.02 0 0 0.02 0.02 0 0 0.02 0.02 0 0 0.02 0.02 0 0 0.05 0.02 0 0 0.02 0.02 0 0 0.02 0.02 0 0 0.02 0.02 0 0 0.05 0.02 0 0 0.02 0.02 0 0 0.02 0.02 0 0 0.05 -0.02 0 0 0.02 -0.02 0 0 0.02 -0.02 0 0 0.02 -0.02 0 0 0.02 -0.02 0 0 0.02 -0.02 0 0 0.02 -0.02 0 0 0.02 -0.02 0 0 0.02 -0.02 0 0 0.02 -0.02 0 0 0.02 -0.02 0 0 0.02 -0.02 0 0 0.02 -0.02 0 0 0.02 -0.02 0 0 0.02 -0.02 0 0 0.02 -0.02 0 0 0.02 -0.02 0 0 0.02 -0.02 0 0 0.02 -0.02 0 0 0.02 -0.02 0 0 0.02 -0.02 0 0 0.02 -0.02 0 0 0.02 -0.02 0 0 0.02 -0.02 0 0 0.02 -0.02 0 0 0.02 -0.02 0 0 0.02 -0.02 0 0 0.02 -0.02 0 0 0.02 -0.02 0 0 0.02 -0.02 0 0 0.02 -0.02 0 0 0.02 -0.02 0 0 0.02 -0.02 0 0 0.02 -0.02 0 0 0.02 -0.02 0 0 0.02 -0.02 0 0 0.02 -0.02 0 0 0.02 -0.02 0 0 0.02 -0.02 0 0 0.02 -0.02 0 0 0.02 -0.02 0 0 0.02 -0.02 0 0 0.02 -0.02 0 0 0.02 -0.02 0 0 0.02 -0.02 0 0 0.02 -0.02 0 0 0.02 -0.02 0 0 0.02 -0.02 0 0 0.02 -0.02 0 0 0.02 -0.02 0 0 0.02 -0.02 0 0 0.02 -0.02 0 0 0.02 -0.02 0 0 0.02 -0.02 0 0 0.02 -0.02 0 0 0.05 -0.02 0 0 0.02 -0.02 0 0 0.07 -0.02 0 0 0.28 0.02 0 0 0.05 0.02 0 0 0.05 0.02 0 0 0.02 0.02 0 0 0.05 0.02 0 0 0.02 0.02 0 0 0.05 0.02 0 0 0.05 0.02 0 0 0.02 0.02 0 0 0.05 0.02 0 0 0.05 0.02 0 0 0.02 0.02 0 0 0.05 0.02 0 0 0.05 0.02 0 0 0.02 0.02 0 0 0.05 0.02 0 0 0.05 0.02 0 0 0.05 0.02 0 0 0.05 0.02 0 0 0.02 0.02 0 0 0.05 0.02 0 0 0.05 0.02 0 0 0.05 0.02 0 0 0.05 0.02 0 0 0.05 0.02 0 0 0.05 0.02 0 0 0.05 0.02 0 0 0.05 0.02 0 0 0.05 0.02 0 0 0.05 0.02 0 0 0.07 0.02 0 0 0.05 0.02 0 0 0.05 0.02 0 0 0.05 0.02 0 0 0.07 0.02 0 0 0.05 0.02 0 0 0.07 0.02 0 0 0.05 0.02 0 0 0.07 0.02 0 0 0.05 0.02 0 0 0.07 0.02 0 0 0.05 0.02 0 0 0.07 0.02 0 0 0.07 0.02 0 0 0.07 0.02 0 0 0.07 0.02 0 0 0.07 0.02 0 0 0.07 0.02 0 0 0.09 0.02 0 0 0.07 0.02 0 0 0.09 0.02 0 0 0.09 0.02 0 0 0.07 0.02 0 0 0.09 0.02 0 0 0.11 0.02 0 0 0.09 0.02 0 0 0.09 0.02 0 0 0.07 0.02 0 0 0.05 0.02 0 0 0.05 0.02 0 0 0.02 0.02 0 0 0.02 0.02 0 0 0.02 0.02 0 0 0.02 0.05 0 0 0.02 0.05 0 0 0.02 0.05 0 0 0.02 1.86 0 0 0.09 0.02 0 0 0.23 0.02 0 0 0.32 0.02 0 0 0.37 0.02 0 0 0.73 -0.02 0 0 0.37 -0.02 0 0 0.32 -0.02 0 0 0.18 -0.02 0 0 0.14 -1.86 0 0 0.02 -0.05 0 0 0.02 -0.05 0 0 0.02 -0.05 0 0 0.02 -0.02 0 0 0.02 -0.02 0 0 0.02 -0.02 0 0 0.02 -0.02 0 0 0.05 -0.02 0 0 0.05 -0.02 0 0 0.07 -0.02 0 0 0.09 -0.02 0 0 0.09 -0.02 0 0 0.09 -0.02 0 0 0.11 -0.02 0 0 0.07 -0.02 0 0 0.09 -0.02 0 0 0.09 -0.02 0 0 0.07 -0.02 0 0 0.09 -0.02 0 0 0.07 -0.02 0 0 0.07 -0.02 0 0 0.07 -0.02 0 0 0.07 -0.02 0 0 0.07 -0.02 0 0 0.07 -0.02 0 0 0.05 -0.02 0 0 0.07 -0.02 0 0 0.05 -0.02 0 0 0.07 -0.02 0 0 0.05 -0.02 0 0 0.07 -0.02 0 0 0.05 -0.02 0 0 0.07 -0.02 0 0 0.05 -0.02 0 0 0.05 -0.02 0 0 0.05 -0.02 0 0 0.07 -0.02 0 0 0.05 -0.02 0 0 0.05 -0.02 0 0 0.05 -0.02 0 0 0.05 -0.02 0 0 0.05 -0.02 0 0 0.05 -0.02 0 0 0.05 -0.02 0 0 0.05 -0.02 0 0 0.05 -0.02 0 0 0.05 -0.02 0 0 0.02 -0.02 0 0 0.05 -0.02 0 0 0.05 -0.02 0 0 0.05 -0.02 0 0 0.05 -0.02 0 0 0.02 -0.02 0 0 0.05 -0.02 0 0 0.05 -0.02 0 0 0.02 -0.02 0 0 0.05 -0.02 0 0 0.05 -0.02 0 0 0.02 -0.02 0 0 0.05 -0.02 0 0 0.05 -0.02 0 0 0.02 -0.02 0 0 0.05 -0.02 0 0 0.02 -0.02 0 0 0.05 -0.02 0 0 0.05 -0.02 0 0 0.28 0.02 0 0 0.07 0.02 0 0 0.02 0.02 0 0 0.05 0.02 0 0 0.02 0.02 0 0 0.02 0.02 0 0 0.02 0.02 0 0 0.02 0.02 0 0 0.02 0.02 0 0 0.02 0.02 0 0 0.02 0.02 0 0 0.02 0.02 0 0 0.02 0.02 0 0 0.02 0.02 0 0 0.02 0.02 0 0 0.02 0.02 0 0 0.02 0.02 0 0 0.02 0.02 0 0 0.02 0.02 0 0 0.02 0.02 0 0 0.02 0.02 0 0 0.02 0.02 0 0 0.02 0.02 0 0 0.02 0.02 0 0 0.02 0.02 0 0 0.02 0.02 0 0 0.02 0.02 0 0 0.02 0.02 0 0 0.02 0.02 0 0 0.02 0.02 0 0 0.02 0.02 0 0 0.02 0.02 0 0 0.02 0.02 0 0 0.02 0.02 0 0 0.02 0.02 0 0 0.02 0.02 0 0 0.02 0.02 0 0 0.02 0.02 0 0 0.02 0.02 0 0 0.02 0.02 0 0 0.02 0.02 0 0 0.02 0.02 0 0 0.02 0.02 0 0 0.02 0.02 0 0 0.02 0.02 0 0 0.02 0.02 0 0 0.02 0.02 0 0 0.02 0.02 0 0 0.02 0.02 0 0 0.02 0.02 0 0 0.02 0.02 0 0 0.02 0.02 0 0 0.02 0.02 0 0 0.02 0.02 0 0 0.02 0.02 0 0 0.02 0.02 0 0 0.02 0.02 0 0 0.02 0.02 0 0 0.05 -0.02 0 0 0.02 -0.02 0 0 0.02 -0.02 0 0 0.05 -0.02 0 0 0.02 -0.02 0 0 0.02 -0.02 0 0 0.02 -0.02 0 0 0.05 -0.02 0 0 0.02 -0.02 0 0 0.02 -0.02 0 0 0.02 -0.02 0 0 0.05 -0.02 0 0 0.02 -0.02 0 0 0.02 -0.02 0 0 0.02 -0.02 0 0 0.02 -0.02 0 0 0.02 -0.02 0 0 0.05 -0.02 0 0 0.02 -0.02 0 0 0.02 -0.02 0 0 0.02 -0.02 0 0 0.02 -0.02 0 0 0.02 -0.02 0 0 0.02 -0.02 0 0 0.02 -0.02 0 0 0.02 -0.02 0 0 0.05 -0.02 0 0 0.02 -0.02 0 0 0.02 -0.02 0 0 0.02 -0.02 0 0 0.02 -0.02 0 0 0.02 -0.02 0 0 0.02 -0.02 0 0 0.02 -0.02 0 0 0.02 -0.02 0 0 0.02 -0.02 0 0 0.02 -0.02 0 0 0.02 -0.02 0 0 0.02 -0.02 0 0 0.02 -0.02 0 0 0.02 -0.02 0 0 0.02 -0.02 0 0 0.02 -0.02 0 0 0.02 -0.02 0 0 0.02 -0.02 0 0 0.02 -0.02 0 0 0.02 -0.02 0 0 0.02 -0.02 0 0 0.02 -0.02 0 0 0.02 -0.02 0 0 0.02 -0.02 0 0 0.02 -0.02 0 0 0.02 -0.05 0 0 0.02 -0.02 0 0 0.02 -0.02 0 0 0.02 -0.02 0 0 0.02 -0.02 0 0 0.02 -0.02 0 0 0.02 -0.02 0 0 0.02 -0.02 0 0 0.02 -0.02 0 0 0.02 -0.05 0 0 0.02 -0.02 0 0 0.02 -0.02 0 0 0.02 -0.02 0 0 0.02 -0.02 0 0 0.02 -0.02 0 0 0.02 -0.05 0 0 0.02 -0.02 0 0 0.02 -0.02 0 0 0.02 -0.02 0 0 0.02 -0.05 0 0 0.02 -0.02 0 0 0.02 -0.02 0 0 0.02 -0.02 0 0 0.02 -0.05 0 0 0.02 -0.02 0 0 0.02 -0.02 0 0 0.02 -0.05 0 0 -0.02 -0.02 0 0 -0.02 -0.02 0 0 -0.02 -0.02 0 0 -0.02 -0.02 0 0 -0.02 -0.02 0 0 -0.02 -0.02 0 0 -0.02 -0.02 0 0 -0.02 -0.02 0 0 -0.02 -0.02 0 0 -0.02 -0.02 0 0 -0.02 -0.02 0 0 -0.02 -0.02 0 0 -0.02 -0.02 0 0 -0.02 -0.02 0 0 -0.02 -0.02 0 0 -0.02 -0.02 0 0 -0.02 -0.02 0 0 -0.02 -0.02 0 0 -0.02 -0.02 0 0 -0.02 -0.02 0 0 -0.02 -0.02 0 0 -0.02 -0.02 0 0 -0.02 -0.02 0 0 -0.02 -0.02 0 0 -0.02 -0.02 0 0 -0.02 -0.02 0 0 -0.02 -0.02 0 0 -0.02 -0.02 0 0 -0.02 -0.02 0 0 -0.02 -0.02 0 0 -0.02 -0.02 0 0 -0.02 -0.02 0 0 -0.02 -0.02 0 0 -0.02 -0.02 0 0 -0.02 -0.02 0 0 -0.02 -0.02 0 0 -0.02 -0.02 0 0 -0.02 -0.02 0 0 -0.02 -0.02 0 0 -0.02 -0.02 0 0 -0.02 -0.02 0 0 -0.02 -0.02 0 0 -0.02 -0.02 0 0 -0.02 -0.02 0 0 -0.02 -0.02 0 0 -0.02 -0.02 0 0 -0.02 -0.02 0 0 -0.02 -0.02 0 0 -0.02 -0.02 0 0 -0.02 -0.02 0 0 -0.02 -0.02 0 0 -0.02 -0.02 0 0 -0.02 -0.02 0 0 -0.02 -0.02 0 0 -0.02 -0.05 0 0 -0.02 -0.02 0 0 -0.02 -0.07 0 0 -0.02 -0.28 0 0 0.02 -0.05 0 0 0.02 -0.05 0 0 0.02 -0.02 0 0 0.02 -0.05 0 0 0.02 -0.02 0 0 0.02 -0.05 0 0 0.02 -0.05 0 0 0.02 -0.02 0 0 0.02 -0.05 0 0 0.02 -0.05 0 0 0.02 -0.02 0 0 0.02 -0.05 0 0 0.02 -0.05 0 0 0.02 -0.02 0 0 0.02 -0.05 0 0 0.02 -0.05 0 0 0.02 -0.05 0 0 0.02 -0.05 0 0 0.02 -0.02 0 0 0.02 -0.05 0 0 0.02 -0.05 0 0 0.02 -0.05 0 0 0.02 -0.05 0 0 0.02 -0.05 0 0 0.02 -0.05 0 0 0.02 -0.05 0 0 0.02 -0.05 0 0 0.02 -0.05 0 0 0.02 -0.05 0 0 0.02 -0.07 0 0 0.02 -0.05 0 0 0.02 -0.05 0 0 0.02 -0.05 0 0 0.02 -0.07 0 0 0.02 -0.05 0 0 0.02 -0.05 0 0 0.02 -0.07 0 0 0.02 -0.05 0 0 0.02 -0.07 0 0 0.02 -0.07 0 0 0.02 -0.07 0 0 0.02 -0.05 0 0 0.02 -0.07 0 0 0.02 -0.07 0 0 0.02 -0.07 0 0 0.02 -0.07 0 0 0.02 -0.07 0 0 0.02 -0.09 0 0 0.02 -0.07 0 0 0.02 -0.09 0 0 0.02 -0.09 0 0 0.02 -0.07 0 0 0.02 -0.09 0 0 0.02 -0.11 0 0 0.02 -0.09 0 0 0.02 -0.09 0 0 0.02 -0.07 0 0 0.02 -0.05 0 0 0.02 -0.05 0 0 0.02 -0.02 0 0 0.02 -0.02 0 0 0.02 -0.02 0 0 0.02 -0.02 0 0 0.05 -0.02 0 0 0.05 -0.02 0 0 0.05 -0.02 0 0 1.86 -0.09 0 0 0.02 -0.3 0 0 0.02 -0.25 0 0 0.02 -0.37 0 0 0.02 -0.73 0 0 -0.02 -0.37 0 0 -0.02 -0.25 0 0 -0.02 -0.3 0 0 -0.02 -0.09 0 0 -1.86 -0.02 0 0 -0.05 -0.02 0 0 -0.05 -0.02 0 0 -0.02 -0.02 0 0 -0.05 -0.02 0 0 -0.02 -0.02 0 0 -0.02 -0.05 0 0 -0.02 -0.02 0 0 -0.02 -0.05 0 0 -0.02 -0.07 0 0 -0.02 -0.09 0 0 -0.02 -0.09 0 0 -0.02 -0.11 0 0 -0.02 -0.09 0 0 -0.02 -0.07 0 0 -0.02 -0.09 0 0 -0.02 -0.09 0 0 -0.02 -0.07 0 0 -0.02 -0.09 0 0 -0.02 -0.07 0 0 -0.02 -0.07 0 0 -0.02 -0.07 0 0 -0.02 -0.07 0 0 -0.02 -0.07 0 0 -0.02 -0.05 0 0 -0.02 -0.07 0 0 -0.02 -0.07 0 0 -0.02 -0.07 0 0 -0.02 -0.05 0 0 -0.02 -0.05 0 0 -0.02 -0.07 0 0 -0.02 -0.05 0 0 -0.02 -0.07 0 0 -0.02 -0.05 0 0 -0.02 -0.05 0 0 -0.02 -0.05 0 0 -0.02 -0.07 0 0 -0.02 -0.05 0 0 -0.02 -0.05 0 0 -0.02 -0.05 0 0 -0.02 -0.05 0 0 -0.02 -0.05 0 0 -0.02 -0.05 0 0 -0.02 -0.05 0 0 -0.02 -0.05 0 0 -0.02 -0.05 0 0 -0.02 -0.05 0 0 -0.02 -0.02 0 0 -0.02 -0.05 0 0 -0.02 -0.05 0 0 -0.02 -0.05 0 0 -0.02 -0.05 0 0 -0.02 -0.02 0 0 -0.02 -0.05 0 0 -0.02 -0.05 0 0 -0.02 -0.02 0 0 -0.02 -0.05 0 0 -0.02 -0.05 0 0 -0.02 -0.02 0 0 -0.02 -0.05 0 0 -0.02 -0.05 0 0 -0.02 -0.02 0 0 -0.02 -0.05 0 0 -0.02 -0.02 0 0 -0.02 -0.05 0 0 -0.02 -0.05 0 0 -0.02 -0.28 0 0 0.02 -0.07 0 0 0.02 -0.02 0 0 0.02 -0.05 0 0 0.02 -0.02 0 0 0.02 -0.02 0 0 0.02 -0.02 0 0 0.02 -0.02 0 0 0.02 -0.02 0 0 0.02 -0.02 0 0 0.02 -0.02 0 0 0.02 -0.02 0 0 0.02 -0.02 0 0 0.02 -0.02 0 0 0.02 -0.02 0 0 0.02 -0.02 0 0 0.02 -0.02 0 0 0.02 -0.02 0 0 0.02 -0.02 0 0 0.02 -0.02 0 0 0.02 -0.02 0 0 0.02 -0.02 0 0 0.02 -0.02 0 0 0.02 -0.02 0 0 0.02 -0.02 0 0 0.02 -0.02 0 0 0.02 -0.02 0 0 0.02 -0.02 0 0 0.02 -0.02 0 0 0.02 -0.02 0 0 0.02 -0.02 0 0 0.02 -0.02 0 0 0.02 -0.02 0 0 0.02 -0.02 0 0 0.02 -0.02 0 0 0.02 -0.02 0 0 0.02 -0.02 0 0 0.02 -0.02 0 0 0.02 -0.02 0 0 0.02 -0.02 0 0 0.02 -0.02 0 0 0.02 -0.02 0 0 0.02 -0.02 0 0 0.02 -0.02 0 0 0.02 -0.02 0 0 0.02 -0.02 0 0 0.02 -0.02 0 0 0.02 -0.02 0 0 0.02 -0.02 0 0 0.02 -0.02 0 0 0.02 -0.02 0 0 0.02 -0.02 0 0 0.02 -0.02 0 0 0.02 -0.02 0 0 0.02 -0.02 0 0 0.02 -0.02 0 0 0.02 -0.02 0 0 0.02 -0.02 0 0 0.02 -0.05 0 0 -0.02 -0.02 0 0 -0.02 -0.02 0 0 -0.02 -0.05 0 0 -0.02 -0.02 0 0 -0.02 -0.02 0 0 -0.02 -0.02 0 0 -0.02 -0.05 0 0 -0.02 -0.02 0 0 -0.02 -0.02 0 0 -0.02 -0.02 0 0 -0.02 -0.05 0 0 -0.02 -0.02 0 0 -0.02 -0.02 0 0 -0.02 -0.02 0 0 -0.02 -0.02 0 0 -0.02 -0.02 0 0 -0.02 -0.05 0 0 -0.02 -0.02 0 0 -0.02 -0.02 0 0 -0.02 -0.02 0 0 -0.02 -0.02 0 0 -0.02 -0.02 0 0 -0.02 -0.02 0 0 -0.02 -0.02 0 0 -0.02 -0.02 0 0 -0.02 -0.05 0 0 -0.02 -0.02 0 0 -0.02 -0.02 0 0 -0.02 -0.02 0 0 -0.02 -0.02 0 0 -0.02 -0.02 0 0 -0.02 -0.02 0 0 -0.02 -0.02 0 0 -0.02 -0.02 0 0 -0.02 -0.02 0 0 -0.02 -0.02 0 0 -0.02 -0.02 0 0 -0.02 -0.02 0 0 -0.02 -0.02 0 0 -0.02 -0.02 0 0 -0.02 -0.02 0 0 -0.02 -0.02 0 0 -0.02 -0.02 0 0 -0.02 -0.02 0 0 -0.02 -0.02 0 0 -0.02 -0.02 0 0 -0.02 -0.02 0 0 -0.02 -0.02 0 0 -0.02 -0.02 0 0 -0.02 -0.02 0 0 -0.02 -0.02 0 0 -0.02 -0.02 0 0 -0.05 -0.02 0 0 -0.02 -0.02 0 0 -0.02 -0.02 0 0 -0.02 -0.02 0 0 -0.02 -0.02 0 0 -0.02 -0.02 0 0 -0.02 -0.02 0 0 -0.02 -0.02 0 0 -0.02 -0.02 0 0 -0.05 -0.02 0 0 -0.02 -0.02 0 0 -0.02 -0.02 0 0 -0.02 -0.02 0 0 -0.02 -0.02 0 0 -0.02 -0.02 0 0 -0.05 -0.02 0 0 -0.02 -0.02 0 0 -0.02 -0.02 0 0 -0.02 -0.02 0 0 -0.05 -0.02 0 0 -0.02 -0.02 0 0 -0.02 -0.02 0 0 -0.02 -0.02 0 0 -0.05 -0.02 0 0 -0.02 -0.02 0 0 -0.02 -0.02 0 0 -0.05 0.02 0 0 -0.02 0.02 0 0 -0.02 0.02 0 0 -0.02 0.02 0 0 -0.02 0.02 0 0 -0.02 0.02 0 0 -0.02 0.02 0 0 -0.02 0.02 0 0 -0.02 0.02 0 0 -0.02 0.02 0 0 -0.02 0.02 0 0 -0.02 0.02 0 0 -0.02 0.02 0 0 -0.02 0.02 0 0 -0.02 0.02 0 0 -0.02 0.02 0 0 -0.02 0.02 0 0 -0.02 0.02 0 0 -0.02 0.02 0 0 -0.02 0.02 0 0 -0.02 0.02 0 0 -0.02 0.02 0 0 -0.02 0.02 0 0 -0.02 0.02 0 0 -0.02 0.02 0 0 -0.02 0.02 0 0 -0.02 0.02 0 0 -0.02 0.02 0 0 -0.02 0.02 0 0 -0.02 0.02 0 0 -0.02 0.02 0 0 -0.02 0.02 0 0 -0.02 0.02 0 0 -0.02 0.02 0 0 -0.02 0.02 0 0 -0.02 0.02 0 0 -0.02 0.02 0 0 -0.02 0.02 0 0 -0.02 0.02 0 0 -0.02 0.02 0 0 -0.02 0.02 0 0 -0.02 0.02 0 0 -0.02 0.02 0 0 -0.02 0.02 0 0 -0.02 0.02 0 0 -0.02 0.02 0 0 -0.02 0.02 0 0 -0.02 0.02 0 0 -0.02 0.02 0 0 -0.02 0.02 0 0 -0.02 0.02 0 0 -0.02 0.02 0 0 -0.02 0.02 0 0 -0.02 0.02 0 0 -0.02 0.02 0 0 -0.05 0.02 0 0 -0.02 0.02 0 0 -0.07 0.02 0 0 -0.28 -0.02 0 0 -0.05 -0.02 0 0 -0.05 -0.02 0 0 -0.02 -0.02 0 0 -0.05 -0.02 0 0 -0.02 -0.02 0 0 -0.05 -0.02 0 0 -0.05 -0.02 0 0 -0.02 -0.02 0 0 -0.05 -0.02 0 0 -0.05 -0.02 0 0 -0.02 -0.02 0 0 -0.05 -0.02 0 0 -0.05 -0.02 0 0 -0.02 -0.02 0 0 -0.05 -0.02 0 0 -0.05 -0.02 0 0 -0.05 -0.02 0 0 -0.02 -0.02 0 0 -0.05 -0.02 0 0 -0.05 -0.02 0 0 -0.05 -0.02 0 0 -0.05 -0.02 0 0 -0.05 -0.02 0 0 -0.05 -0.02 0 0 -0.05 -0.02 0 0 -0.05 -0.02 0 0 -0.05 -0.02 0 0 -0.05 -0.02 0 0 -0.05 -0.02 0 0 -0.07 -0.02 0 0 -0.05 -0.02 0 0 -0.05 -0.02 0 0 -0.05 -0.02 0 0 -0.07 -0.02 0 0 -0.05 -0.02 0 0 -0.07 -0.02 0 0 -0.05 -0.02 0 0 -0.07 -0.02 0 0 -0.05 -0.02 0 0 -0.07 -0.02 0 0 -0.05 -0.02 0 0 -0.07 -0.02 0 0 -0.07 -0.02 0 0 -0.07 -0.02 0 0 -0.07 -0.02 0 0 -0.07 -0.02 0 0 -0.07 -0.02 0 0 -0.09 -0.02 0 0 -0.07 -0.02 0 0 -0.09 -0.02 0 0 -0.09 -0.02 0 0 -0.07 -0.02 0 0 -0.09 -0.02 0 0 -0.11 -0.02 0 0 -0.09 -0.02 0 0 -0.09 -0.02 0 0 -0.07 -0.02 0 0 -0.05 -0.02 0 0 -0.05 -0.02 0 0 -0.02 -0.02 0 0 -0.02 -0.02 0 0 -0.02 -0.02 0 0 -0.02 -0.05 0 0 -0.02 -0.05 0 0 -0.02 -0.05 0 0 -0.02 -1.86 0 0 -0.14 -0.02 0 0 -0.18 -0.02 0 0 -0.32 -0.02 0 0 -0.37 -0.02 0 0 -0.83 0.02 0 0 -0.28 0.02 0 0 -0.32 0.02 0 0 -0.18 0.02 0 0 -0.14 1.86 0 0 -0.02 0.05 0 0 -0.02 0.05 0 0 -0.02 0.05 0 0 -0.02 0.02 0 0 -0.02 0.02 0 0 -0.02 0.02 0 0 -0.02 0.02 0 0 -0.05 0.02 0 0 -0.05 0.02 0 0 -0.07 0.02 0 0 -0.09 0.02 0 0 -0.09 0.02 0 0 -0.09 0.02 0 0 -0.11 0.02 0 0 -0.07 0.02 0 0 -0.09 0.02 0 0 -0.09 0.02 0 0 -0.07 0.02 0 0 -0.09 0.02 0 0 -0.07 0.02 0 0 -0.07 0.02 0 0 -0.07 0.02 0 0 -0.07 0.02 0 0 -0.07 0.02 0 0 -0.07 0.02 0 0 -0.05 0.02 0 0 -0.07 0.02 0 0 -0.05 0.02 0 0 -0.07 0.02 0 0 -0.05 0.02 0 0 -0.07 0.02 0 0 -0.05 0.02 0 0 -0.07 0.02 0 0 -0.05 0.02 0 0 -0.05 0.02 0 0 -0.05 0.02 0 0 -0.07 0.02 0 0 -0.05 0.02 0 0 -0.05 0.02 0 0 -0.05 0.02 0 0 -0.05 0.02 0 0 -0.05 0.02 0 0 -0.05 0.02 0 0 -0.05 0.02 0 0 -0.05 0.02 0 0 -0.05 0.02 0 0 -0.05 0.02 0 0 -0.05 0.02 0 0 -0.02 0.02 0 0 -0.05 0.02 0 0 -0.05 0.02 0 0 -0.05 0.02 0 0 -0.02 0.02 0 0 -0.05 0.02 0 0 -0.05 0.02 0 0 -0.02 0.02 0 0 -0.05 0.02 0 0 -0.05 0.02 0 0 -0.02 0.02 0 0 -0.05 0.02 0 0 -0.05 0.02 0 0 -0.02 0.02 0 0 -0.05 0.02 0 0 -0.02 0.02 0 0 -0.05 0.02 0 0 -0.05 0.02 0 0 -0.28 -0.02 0 0 -0.07 -0.02 0 0 -0.02 -0.02 0 0 -0.05 -0.02 0 0 -0.02 -0.02 0 0 -0.02 -0.02 0 0 -0.02 -0.02 0 0 -0.02 -0.02 0 0 -0.02 -0.02 0 0 -0.02 -0.02 0 0 -0.02 -0.02 0 0 -0.02 -0.02 0 0 -0.02 -0.02 0 0 -0.02 -0.02 0 0 -0.02 -0.02 0 0 -0.02 -0.02 0 0 -0.02 -0.02 0 0 -0.02 -0.02 0 0 -0.02 -0.02 0 0 -0.02 -0.02 0 0 -0.02 -0.02 0 0 -0.02 -0.02 0 0 -0.02 -0.02 0 0 -0.02 -0.02 0 0 -0.02 -0.02 0 0 -0.02 -0.02 0 0 -0.02 -0.02 0 0 -0.02 -0.02 0 0 -0.02 -0.02 0 0 -0.02 -0.02 0 0 -0.02 -0.02 0 0 -0.02 -0.02 0 0 -0.02 -0.02 0 0 -0.02 -0.02 0 0 -0.02 -0.02 0 0 -0.02 -0.02 0 0 -0.02 -0.02 0 0 -0.02 -0.02 0 0 -0.02 -0.02 0 0 -0.02 -0.02 0 0 -0.02 -0.02 0 0 -0.02 -0.02 0 0 -0.02 -0.02 0 0 -0.02 -0.02 0 0 -0.02 -0.02 0 0 -0.02 -0.02 0 0 -0.02 -0.02 0 0 -0.02 -0.02 0 0 -0.02 -0.02 0 0 -0.02 -0.02 0 0 -0.02 -0.02 0 0 -0.02 -0.02 0 0 -0.02 -0.02 0 0 -0.02 -0.02 0 0 -0.02 -0.02 0 0 -0.02 -0.02 0 0 -0.02 -0.02 0 0 -0.02 -0.02 0 0 -0.05zm2.66 -2.16l0.18 0 0 0.02 0.02 0 0 0.05 0.05 0 0 0.05 0.02 0 0 0.02 0.05 0 0 0.02 0.02 0 0 0.02 0.02 0 0 0.02 0.02 0 0 0.02 0.02 0 0 0.05 0.05 0 0 0.05 0.02 0 0 0.02 0.02 0 0 0.02 0.02 0 0 0.02 0.05 0 0 0.21 -0.02 0 0 -0.02 -0.05 0 0 -0.05 -0.05 0 0 -0.05 -0.05 0 0 -0.02 -0.02 0 0 -0.02 -0.02 0 0 -0.02 -0.02 0 0 -0.02 -0.02 0 0 -0.02 -0.02 0 0 -0.02 -0.02 0 0 -0.02 -0.02 0 0 -0.02 -0.02 0 0 -0.02 -0.02 0 0 -0.02 -0.02 0 0 -0.02 -0.02 0 0 -0.02 -0.02 0 0 -0.02 -0.02 0 0 -0.02 -0.02 0 0 -0.02 -0.02 0 0 -0.02 -0.02 0 0 -0.02 -0.02 0 0 -0.02 -0.02 0 0 -0.07zm5.07 -2.8l-0.32 0 0 0.02 -0.25 0 0 0.02 -0.18 0 0 0.02 -0.16 0 0 0.02 -0.16 0 0 0.02 -0.14 0 0 0.02 -0.11 0 0 0.02 -0.05 0 0 0.02 -0.05 0 0 0.02 -0.02 0 0 0.02 -0.02 0 0 0.02 -0.02 0 0 0.02 -0.02 0 0 0.02 -0.02 0 0 0.05 -0.02 0 0 0.05 -0.02 0 0 0.07 -0.02 0 0 1.86 -0.07 0 0 0.02 -0.09 0 0 0.02 -0.09 0 0 0.02 -0.07 0 0 0.02 -0.09 0 0 0.02 -0.07 0 0 0.02 -0.07 0 0 0.02 -0.09 0 0 0.02 -0.07 0 0 0.02 -0.07 0 0 0.02 -0.07 0 0 0.02 -0.05 0 0 0.02 -0.07 0 0 0.02 -0.07 0 0 0.02 -0.07 0 0 0.02 -0.05 0 0 0.02 -0.07 0 0 0.02 -0.05 0 0 0.02 -0.07 0 0 0.02 -0.05 0 0 0.02 -0.05 0 0 0.02 -0.07 0 0 0.02 -0.05 0 0 0.02 -0.05 0 0 0.02 -0.07 0 0 0.02 -0.05 0 0 0.02 -0.05 0 0 0.02 -0.05 0 0 0.02 -0.05 0 0 0.02 -0.05 0 0 0.02 -0.05 0 0 0.02 -0.05 0 0 0.02 -0.05 0 0 0.02 -0.05 0 0 0.02 -0.05 0 0 0.02 -0.05 0 0 0.02 -0.05 0 0 0.02 -0.05 0 0 0.02 -0.02 0 0 0.02 -0.05 0 0 0.02 -0.05 0 0 0.02 -0.05 0 0 0.02 -0.02 0 0 0.02 -0.05 0 0 0.02 -0.05 0 0 0.02 -0.05 0 0 0.02 -0.07 0 0 -0.02 -0.02 0 0 -0.02 -0.02 0 0 -0.02 -0.02 0 0 -0.02 -0.02 0 0 -0.02 -0.02 0 0 -0.02 -0.02 0 0 -0.02 -0.02 0 0 -0.02 -0.02 0 0 -0.02 -0.02 0 0 -0.02 -0.02 0 0 -0.02 -0.02 0 0 -0.02 -0.02 0 0 -0.02 -0.02 0 0 -0.02 -0.02 0 0 -0.02 -0.02 0 0 -0.02 -0.02 0 0 -0.02 -0.02 0 0 -0.02 -0.02 0 0 -0.02 -0.02 0 0 -0.02 -0.02 0 0 -0.02 -0.02 0 0 -0.02 -0.02 0 0 -0.02 -0.02 0 0 -0.02 -0.02 0 0 -0.02 -0.02 0 0 -0.02 -0.02 0 0 -0.02 -0.02 0 0 -0.02 -0.02 0 0 -0.02 -0.02 0 0 -0.02 -0.02 0 0 -0.02 -0.02 0 0 -0.02 -0.02 0 0 -0.02 -0.02 0 0 -0.02 -0.02 0 0 -0.02 -0.02 0 0 -0.02 -0.02 0 0 -0.02 -0.02 0 0 -0.02 -0.02 0 0 -0.02 -0.02 0 0 -0.02 -0.02 0 0 -0.02 -0.02 0 0 -0.02 -0.02 0 0 -0.02 -0.02 0 0 -0.02 -0.02 0 0 -0.02 -0.02 0 0 -0.02 -0.02 0 0 -0.02 -0.02 0 0 -0.02 -0.02 0 0 -0.02 -0.02 0 0 -0.02 -0.02 0 0 -0.02 -0.02 0 0 -0.02 -0.02 0 0 -0.02 -0.02 0 0 -0.02 -0.02 0 0 -0.02 -0.02 0 0 -0.02 -0.05 0 0 -0.02 -0.05 0 0 -0.02 -0.07 0 0 -0.02 -0.16 0 0 0.02 -0.09 0 0 0.02 -0.05 0 0 0.02 -0.05 0 0 0.02 -0.02 0 0 0.02 -0.05 0 0 0.02 -0.02 0 0 0.02 -0.02 0 0 0.02 -0.05 0 0 0.02 -0.02 0 0 0.02 -0.02 0 0 0.02 -0.05 0 0 0.02 -0.02 0 0 0.02 -0.02 0 0 0.02 -0.05 0 0 0.02 -0.02 0 0 0.02 -0.02 0 0 0.02 -0.05 0 0 0.02 -0.02 0 0 0.02 -0.02 0 0 0.02 -0.02 0 0 0.02 -0.05 0 0 0.02 -0.02 0 0 0.02 -0.02 0 0 0.02 -0.02 0 0 0.02 -0.05 0 0 0.02 -0.02 0 0 0.02 -0.02 0 0 0.02 -0.02 0 0 0.02 -0.02 0 0 0.02 -0.05 0 0 0.02 -0.02 0 0 0.02 -0.02 0 0 0.02 -0.02 0 0 0.02 -0.02 0 0 0.02 -0.02 0 0 0.02 -0.02 0 0 0.02 -0.02 0 0 0.02 -0.05 0 0 0.02 -0.02 0 0 0.02 -0.02 0 0 0.02 -0.02 0 0 0.02 -0.02 0 0 0.02 -0.02 0 0 0.02 -0.02 0 0 0.02 -0.02 0 0 0.02 -0.02 0 0 0.02 -0.02 0 0 0.02 -0.02 0 0 0.02 -0.02 0 0 0.02 -0.02 0 0 0.02 -0.05 0 0 0.02 -0.02 0 0 0.02 -0.02 0 0 0.02 -0.02 0 0 0.02 -0.02 0 0 0.05 -0.02 0 0 0.02 -0.05 0 0 0.02 -0.02 0 0 0.02 -0.02 0 0 0.02 -0.02 0 0 0.02 -0.02 0 0 0.05 -0.02 0 0 0.02 -0.02 0 0 0.02 -0.02 0 0 0.02 -0.02 0 0 0.02 -0.02 0 0 0.02 -0.02 0 0 0.02 -0.02 0 0 0.02 -0.02 0 0 0.02 -0.02 0 0 0.02 -0.02 0 0 0.02 -0.02 0 0 0.02 -0.02 0 0 0.02 -0.02 0 0 0.05 -0.02 0 0 0.02 -0.02 0 0 0.02 -0.02 0 0 0.02 -0.02 0 0 0.02 -0.02 0 0 0.02 -0.02 0 0 0.02 -0.02 0 0 0.05 -0.02 0 0 0.02 -0.02 0 0 0.02 -0.02 0 0 0.02 -0.02 0 0 0.02 -0.02 0 0 0.05 -0.02 0 0 0.02 -0.02 0 0 0.02 -0.02 0 0 0.02 -0.02 0 0 0.02 -0.02 0 0 0.05 -0.02 0 0 0.02 -0.02 0 0 0.02 -0.02 0 0 0.02 -0.02 0 0 0.05 -0.02 0 0 0.02 -0.02 0 0 0.02 -0.02 0 0 0.05 -0.02 0 0 0.02 -0.02 0 0 0.02 -0.02 0 0 0.02 -0.02 0 0 0.05 -0.02 0 0 0.02 -0.02 0 0 0.05 -0.02 0 0 0.02 -0.02 0 0 0.02 -0.02 0 0 0.05 -0.02 0 0 0.02 -0.02 0 0 0.05 -0.02 0 0 0.05 -0.02 0 0 0.09 -0.02 0 0 0.16 0.02 0 0 0.07 0.02 0 0 0.05 0.02 0 0 0.05 0.02 0 0 0.02 0.02 0 0 0.02 0.02 0 0 0.02 0.02 0 0 0.02 0.02 0 0 0.02 0.02 0 0 0.02 0.02 0 0 0.02 0.02 0 0 0.02 0.02 0 0 0.02 0.02 0 0 0.02 0.02 0 0 0.02 0.02 0 0 0.02 0.02 0 0 0.02 0.02 0 0 0.02 0.02 0 0 0.02 0.02 0 0 0.02 0.02 0 0 0.02 0.02 0 0 0.02 0.02 0 0 0.02 0.02 0 0 0.02 0.02 0 0 0.02 0.02 0 0 0.02 0.02 0 0 0.02 0.02 0 0 0.02 0.02 0 0 0.02 0.02 0 0 0.02 0.02 0 0 0.02 0.02 0 0 0.02 0.02 0 0 0.02 0.02 0 0 0.02 0.02 0 0 0.02 0.02 0 0 0.02 0.02 0 0 0.02 0.02 0 0 0.02 0.02 0 0 0.02 0.02 0 0 0.02 0.02 0 0 0.02 0.02 0 0 0.02 0.02 0 0 0.02 0.02 0 0 0.02 0.02 0 0 0.02 0.02 0 0 0.02 0.02 0 0 0.02 0.02 0 0 0.02 0.02 0 0 0.02 0.02 0 0 0.02 0.02 0 0 0.02 0.02 0 0 0.02 0.02 0 0 0.02 0.02 0 0 0.02 0.02 0 0 0.02 0.02 0 0 0.02 0.02 0 0 0.02 0.02 0 0 0.02 0.02 0 0 0.02 0.02 0 0 0.07 -0.02 0 0 0.05 -0.02 0 0 0.05 -0.02 0 0 0.05 -0.02 0 0 0.02 -0.02 0 0 0.05 -0.02 0 0 0.05 -0.02 0 0 0.05 -0.02 0 0 0.02 -0.02 0 0 0.05 -0.02 0 0 0.05 -0.02 0 0 0.05 -0.02 0 0 0.05 -0.02 0 0 0.05 -0.02 0 0 0.05 -0.02 0 0 0.05 -0.02 0 0 0.05 -0.02 0 0 0.05 -0.02 0 0 0.05 -0.02 0 0 0.05 -0.02 0 0 0.05 -0.02 0 0 0.05 -0.02 0 0 0.07 -0.02 0 0 0.05 -0.02 0 0 0.05 -0.02 0 0 0.07 -0.02 0 0 0.05 -0.02 0 0 0.05 -0.02 0 0 0.07 -0.02 0 0 0.05 -0.02 0 0 0.07 -0.02 0 0 0.05 -0.02 0 0 0.07 -0.02 0 0 0.07 -0.02 0 0 0.07 -0.02 0 0 0.05 -0.02 0 0 0.07 -0.02 0 0 0.07 -0.02 0 0 0.07 -0.02 0 0 0.09 -0.02 0 0 0.07 -0.02 0 0 0.07 -0.02 0 0 0.09 -0.02 0 0 0.07 -0.02 0 0 0.09 -0.02 0 0 0.09 -0.02 0 0 0.07 -1.86 0 0 0.02 -0.07 0 0 0.02 -0.05 0 0 0.02 -0.05 0 0 0.02 -0.02 0 0 0.02 -0.02 0 0 0.02 -0.02 0 0 0.02 -0.02 0 0 0.02 -0.02 0 0 0.05 -0.02 0 0 0.05 -0.02 0 0 0.11 -0.02 0 0 0.14 -0.02 0 0 0.14 -0.02 0 0 0.18 -0.02 0 0 0.18 -0.02 0 0 0.3 -0.02 0 0 0.37 -0.02 0 0 1.17 0.02 0 0 0.3 0.02 0 0 0.3 0.02 0 0 0.21 0.02 0 0 0.14 0.02 0 0 0.18 0.02 0 0 0.12 0.02 0 0 0.11 0.02 0 0 0.05 0.02 0 0 0.05 0.02 0 0 0.02 0.02 0 0 0.02 0.02 0 0 0.02 0.02 0 0 0.02 0.02 0 0 0.02 0.05 0 0 0.02 0.05 0 0 0.02 0.07 0 0 0.02 1.86 0 0 0.07 0.02 0 0 0.09 0.02 0 0 0.09 0.02 0 0 0.07 0.02 0 0 0.09 0.02 0 0 0.07 0.02 0 0 0.07 0.02 0 0 0.09 0.02 0 0 0.07 0.02 0 0 0.07 0.02 0 0 0.07 0.02 0 0 0.05 0.02 0 0 0.07 0.02 0 0 0.07 0.02 0 0 0.07 0.02 0 0 0.05 0.02 0 0 0.07 0.02 0 0 0.05 0.02 0 0 0.07 0.02 0 0 0.05 0.02 0 0 0.05 0.02 0 0 0.07 0.02 0 0 0.05 0.02 0 0 0.05 0.02 0 0 0.07 0.02 0 0 0.05 0.02 0 0 0.05 0.02 0 0 0.05 0.02 0 0 0.05 0.02 0 0 0.05 0.02 0 0 0.05 0.02 0 0 0.05 0.02 0 0 0.05 0.02 0 0 0.05 0.02 0 0 0.05 0.02 0 0 0.05 0.02 0 0 0.05 0.02 0 0 0.05 0.02 0 0 0.02 0.02 0 0 0.05 0.02 0 0 0.05 0.02 0 0 0.05 0.02 0 0 0.02 0.02 0 0 0.05 0.02 0 0 0.05 0.02 0 0 0.05 0.02 0 0 0.07 -0.02 0 0 0.02 -0.02 0 0 0.02 -0.02 0 0 0.02 -0.02 0 0 0.02 -0.02 0 0 0.02 -0.02 0 0 0.02 -0.02 0 0 0.02 -0.02 0 0 0.02 -0.02 0 0 0.02 -0.02 0 0 0.02 -0.02 0 0 0.02 -0.02 0 0 0.02 -0.02 0 0 0.02 -0.02 0 0 0.02 -0.02 0 0 0.02 -0.02 0 0 0.02 -0.02 0 0 0.02 -0.02 0 0 0.02 -0.02 0 0 0.02 -0.02 0 0 0.02 -0.02 0 0 0.02 -0.02 0 0 0.02 -0.02 0 0 0.02 -0.02 0 0 0.02 -0.02 0 0 0.02 -0.02 0 0 0.02 -0.02 0 0 0.02 -0.02 0 0 0.02 -0.02 0 0 0.02 -0.02 0 0 0.02 -0.02 0 0 0.02 -0.02 0 0 0.02 -0.02 0 0 0.02 -0.02 0 0 0.02 -0.02 0 0 0.02 -0.02 0 0 0.02 -0.02 0 0 0.02 -0.02 0 0 0.02 -0.02 0 0 0.02 -0.02 0 0 0.02 -0.02 0 0 0.02 -0.02 0 0 0.02 -0.02 0 0 0.02 -0.02 0 0 0.02 -0.02 0 0 0.02 -0.02 0 0 0.02 -0.02 0 0 0.02 -0.02 0 0 0.02 -0.02 0 0 0.02 -0.02 0 0 0.02 -0.02 0 0 0.02 -0.02 0 0 0.02 -0.02 0 0 0.02 -0.02 0 0 0.02 -0.02 0 0 0.02 -0.02 0 0 0.05 -0.02 0 0 0.05 -0.02 0 0 0.07 -0.02 0 0 0.16 0.02 0 0 0.09 0.02 0 0 0.05 0.02 0 0 0.05 0.02 0 0 0.02 0.02 0 0 0.05 0.02 0 0 0.02 0.02 0 0 0.02 0.02 0 0 0.05 0.02 0 0 0.02 0.02 0 0 0.02 0.02 0 0 0.05 0.02 0 0 0.02 0.02 0 0 0.02 0.02 0 0 0.05 0.02 0 0 0.02 0.02 0 0 0.02 0.02 0 0 0.05 0.02 0 0 0.02 0.02 0 0 0.02 0.02 0 0 0.02 0.02 0 0 0.05 0.02 0 0 0.02 0.02 0 0 0.02 0.02 0 0 0.02 0.02 0 0 0.02 0.02 0 0 0.05 0.02 0 0 0.02 0.02 0 0 0.02 0.02 0 0 0.02 0.02 0 0 0.02 0.02 0 0 0.05 0.02 0 0 0.02 0.02 0 0 0.02 0.02 0 0 0.02 0.02 0 0 0.02 0.02 0 0 0.02 0.02 0 0 0.02 0.02 0 0 0.05 0.02 0 0 0.02 0.02 0 0 0.02 0.02 0 0 0.02 0.02 0 0 0.02 0.02 0 0 0.02 0.02 0 0 0.02 0.02 0 0 0.02 0.02 0 0 0.02 0.02 0 0 0.02 0.02 0 0 0.02 0.02 0 0 0.02 0.02 0 0 0.02 0.02 0 0 0.05 0.02 0 0 0.02 0.02 0 0 0.02 0.02 0 0 0.02 0.02 0 0 0.02 0.05 0 0 0.02 0.02 0 0 0.05 0.02 0 0 0.02 0.02 0 0 0.02 0.05 0 0 0.02 0.02 0 0 0.02 0.02 0 0 0.02 0.02 0 0 0.02 0.02 0 0 0.02 0.02 0 0 0.02 0.02 0 0 0.02 0.02 0 0 0.02 0.02 0 0 0.02 0.02 0 0 0.02 0.02 0 0 0.02 0.02 0 0 0.02 0.02 0 0 0.02 0.02 0 0 0.02 0.02 0 0 0.02 0.05 0 0 0.02 0.02 0 0 0.02 0.02 0 0 0.02 0.02 0 0 0.02 0.02 0 0 0.02 0.02 0 0 0.02 0.02 0 0 0.02 0.02 0 0 0.02 0.05 0 0 0.02 0.02 0 0 0.02 0.02 0 0 0.02 0.02 0 0 0.02 0.02 0 0 0.02 0.05 0 0 0.02 0.02 0 0 0.02 0.02 0 0 0.02 0.02 0 0 0.02 0.05 0 0 0.02 0.02 0 0 0.02 0.02 0 0 0.02 0.02 0 0 0.02 0.05 0 0 0.02 0.02 0 0 0.02 0.02 0 0 0.02 0.05 0 0 0.02 0.02 0 0 0.02 0.02 0 0 0.02 0.05 0 0 0.02 0.02 0 0 0.02 0.02 0 0 0.02 0.05 0 0 0.02 0.02 0 0 0.02 0.02 0 0 0.02 0.05 0 0 0.02 0.02 0 0 0.02 0.05 0 0 0.02 0.05 0 0 0.02 0.09 0 0 0.02 0.16 0 0 -0.02 0.07 0 0 -0.02 0.05 0 0 -0.02 0.05 0 0 -0.02 0.02 0 0 -0.02 0.02 0 0 -0.02 0.02 0 0 -0.02 0.02 0 0 -0.02 0.02 0 0 -0.02 0.02 0 0 -0.02 0.02 0 0 -0.02 0.02 0 0 -0.02 0.02 0 0 -0.02 0.02 0 0 -0.02 0.02 0 0 -0.02 0.02 0 0 -0.02 0.02 0 0 -0.02 0.02 0 0 -0.02 0.02 0 0 -0.02 0.02 0 0 -0.02 0.02 0 0 -0.02 0.02 0 0 -0.02 0.02 0 0 -0.02 0.02 0 0 -0.02 0.02 0 0 -0.02 0.02 0 0 -0.02 0.02 0 0 -0.02 0.02 0 0 -0.02 0.02 0 0 -0.02 0.02 0 0 -0.02 0.02 0 0 -0.02 0.02 0 0 -0.02 0.02 0 0 -0.02 0.02 0 0 -0.02 0.02 0 0 -0.02 0.02 0 0 -0.02 0.02 0 0 -0.02 0.02 0 0 -0.02 0.02 0 0 -0.02 0.02 0 0 -0.02 0.02 0 0 -0.02 0.02 0 0 -0.02 0.02 0 0 -0.02 0.02 0 0 -0.02 0.02 0 0 -0.02 0.02 0 0 -0.02 0.02 0 0 -0.02 0.02 0 0 -0.02 0.02 0 0 -0.02 0.02 0 0 -0.02 0.02 0 0 -0.02 0.02 0 0 -0.02 0.02 0 0 -0.02 0.02 0 0 -0.02 0.02 0 0 -0.02 0.02 0 0 -0.02 0.02 0 0 -0.02 0.02 0 0 -0.02 0.02 0 0 -0.02 0.07 0 0 0.02 0.05 0 0 0.02 0.05 0 0 0.02 0.05 0 0 0.02 0.02 0 0 0.02 0.05 0 0 0.02 0.05 0 0 0.02 0.05 0 0 0.02 0.02 0 0 0.02 0.05 0 0 0.02 0.05 0 0 0.02 0.05 0 0 0.02 0.05 0 0 0.02 0.05 0 0 0.02 0.05 0 0 0.02 0.05 0 0 0.02 0.05 0 0 0.02 0.05 0 0 0.02 0.05 0 0 0.02 0.05 0 0 0.02 0.05 0 0 0.02 0.05 0 0 0.02 0.07 0 0 0.02 0.05 0 0 0.02 0.05 0 0 0.02 0.07 0 0 0.02 0.05 0 0 0.02 0.05 0 0 0.02 0.07 0 0 0.02 0.05 0 0 0.02 0.07 0 0 0.02 0.05 0 0 0.02 0.07 0 0 0.02 0.07 0 0 0.02 0.07 0 0 0.02 0.05 0 0 0.02 0.07 0 0 0.02 0.07 0 0 0.02 0.07 0 0 0.02 0.09 0 0 0.02 0.07 0 0 0.02 0.07 0 0 0.02 0.09 0 0 0.02 0.07 0 0 0.02 0.09 0 0 0.02 0.09 0 0 0.02 0.07 0 0 1.86 0.02 0 0 0.07 0.02 0 0 0.05 0.02 0 0 0.05 0.02 0 0 0.02 0.02 0 0 0.02 0.02 0 0 0.02 0.02 0 0 0.02 0.02 0 0 0.02 0.05 0 0 0.02 0.05 0 0 0.02 0.11 0 0 0.02 0.14 0 0 0.02 0.16 0 0 0.02 0.16 0 0 0.02 0.21 0 0 0.02 0.21 0 0 0.02 0.34 0 0 0.02 1.28 0 0 -0.02 0.32 0 0 -0.02 0.25 0 0 -0.02 0.18 0 0 -0.02 0.16 0 0 -0.02 0.16 0 0 -0.02 0.14 0 0 -0.02 0.11 0 0 -0.02 0.05 0 0 -0.02 0.02 0 0 -0.02 0.05 0 0 -0.02 0.02 0 0 -0.02 0.02 0 0 -0.02 0.02 0 0 -0.02 0.02 0 0 -0.05 0.02 0 0 -0.05 0.02 0 0 -0.07 0.02 0 0 -1.86 0.07 0 0 -0.02 0.09 0 0 -0.02 0.09 0 0 -0.02 0.07 0 0 -0.02 0.09 0 0 -0.02 0.07 0 0 -0.02 0.07 0 0 -0.02 0.09 0 0 -0.02 0.07 0 0 -0.02 0.07 0 0 -0.02 0.07 0 0 -0.02 0.05 0 0 -0.02 0.07 0 0 -0.02 0.07 0 0 -0.02 0.07 0 0 -0.02 0.05 0 0 -0.02 0.07 0 0 -0.02 0.05 0 0 -0.02 0.07 0 0 -0.02 0.05 0 0 -0.02 0.05 0 0 -0.02 0.07 0 0 -0.02 0.05 0 0 -0.02 0.05 0 0 -0.02 0.07 0 0 -0.02 0.05 0 0 -0.02 0.05 0 0 -0.02 0.05 0 0 -0.02 0.05 0 0 -0.02 0.05 0 0 -0.02 0.05 0 0 -0.02 0.05 0 0 -0.02 0.05 0 0 -0.02 0.05 0 0 -0.02 0.05 0 0 -0.02 0.05 0 0 -0.02 0.05 0 0 -0.02 0.05 0 0 -0.02 0.02 0 0 -0.02 0.05 0 0 -0.02 0.05 0 0 -0.02 0.05 0 0 -0.02 0.02 0 0 -0.02 0.05 0 0 -0.02 0.05 0 0 -0.02 0.05 0 0 -0.02 0.07 0 0 0.02 0.02 0 0 0.02 0.02 0 0 0.02 0.02 0 0 0.02 0.02 0 0 0.02 0.02 0 0 0.02 0.02 0 0 0.02 0.02 0 0 0.02 0.02 0 0 0.02 0.02 0 0 0.02 0.02 0 0 0.02 0.02 0 0 0.02 0.02 0 0 0.02 0.02 0 0 0.02 0.02 0 0 0.02 0.02 0 0 0.02 0.02 0 0 0.02 0.02 0 0 0.02 0.02 0 0 0.02 0.02 0 0 0.02 0.02 0 0 0.02 0.02 0 0 0.02 0.02 0 0 0.02 0.02 0 0 0.02 0.02 0 0 0.02 0.02 0 0 0.02 0.02 0 0 0.02 0.02 0 0 0.02 0.02 0 0 0.02 0.02 0 0 0.02 0.02 0 0 0.02 0.02 0 0 0.02 0.02 0 0 0.02 0.02 0 0 0.02 0.02 0 0 0.02 0.02 0 0 0.02 0.02 0 0 0.02 0.02 0 0 0.02 0.02 0 0 0.02 0.02 0 0 0.02 0.02 0 0 0.02 0.02 0 0 0.02 0.02 0 0 0.02 0.02 0 0 0.02 0.02 0 0 0.02 0.02 0 0 0.02 0.02 0 0 0.02 0.02 0 0 0.02 0.02 0 0 0.02 0.02 0 0 0.02 0.02 0 0 0.02 0.02 0 0 0.02 0.02 0 0 0.02 0.02 0 0 0.02 0.02 0 0 0.02 0.02 0 0 0.02 0.05 0 0 0.02 0.05 0 0 0.02 0.07 0 0 0.02 0.16 0 0 -0.02 0.09 0 0 -0.02 0.05 0 0 -0.02 0.05 0 0 -0.02 0.02 0 0 -0.02 0.05 0 0 -0.02 0.02 0 0 -0.02 0.02 0 0 -0.02 0.05 0 0 -0.02 0.02 0 0 -0.02 0.02 0 0 -0.02 0.05 0 0 -0.02 0.02 0 0 -0.02 0.02 0 0 -0.02 0.05 0 0 -0.02 0.02 0 0 -0.02 0.02 0 0 -0.02 0.05 0 0 -0.02 0.02 0 0 -0.02 0.02 0 0 -0.02 0.02 0 0 -0.02 0.05 0 0 -0.02 0.02 0 0 -0.02 0.02 0 0 -0.02 0.02 0 0 -0.02 0.05 0 0 -0.02 0.02 0 0 -0.02 0.02 0 0 -0.02 0.02 0 0 -0.02 0.02 0 0 -0.02 0.02 0 0 -0.02 0.05 0 0 -0.02 0.02 0 0 -0.02 0.02 0 0 -0.02 0.02 0 0 -0.02 0.02 0 0 -0.02 0.02 0 0 -0.02 0.02 0 0 -0.02 0.05 0 0 -0.02 0.02 0 0 -0.02 0.02 0 0 -0.02 0.02 0 0 -0.02 0.02 0 0 -0.02 0.02 0 0 -0.02 0.02 0 0 -0.02 0.02 0 0 -0.02 0.02 0 0 -0.02 0.02 0 0 -0.02 0.02 0 0 -0.02 0.02 0 0 -0.02 0.02 0 0 -0.02 0.02 0 0 -0.02 0.02 0 0 -0.02 0.05 0 0 -0.02 0.02 0 0 -0.02 0.02 0 0 -0.05 0.02 0 0 -0.02 0.05 0 0 -0.02 0.02 0 0 -0.02 0.02 0 0 -0.02 0.02 0 0 -0.02 0.02 0 0 -0.05 0.02 0 0 -0.02 0.02 0 0 -0.02 0.02 0 0 -0.02 0.02 0 0 -0.02 0.02 0 0 -0.02 0.02 0 0 -0.02 0.02 0 0 -0.02 0.02 0 0 -0.02 0.02 0 0 -0.02 0.02 0 0 -0.02 0.02 0 0 -0.02 0.02 0 0 -0.02 0.02 0 0 -0.05 0.02 0 0 -0.02 0.02 0 0 -0.02 0.02 0 0 -0.02 0.02 0 0 -0.02 0.02 0 0 -0.02 0.02 0 0 -0.02 0.02 0 0 -0.05 0.02 0 0 -0.02 0.02 0 0 -0.02 0.02 0 0 -0.02 0.02 0 0 -0.02 0.02 0 0 -0.05 0.02 0 0 -0.02 0.02 0 0 -0.02 0.02 0 0 -0.02 0.02 0 0 -0.02 0.02 0 0 -0.05 0.02 0 0 -0.02 0.02 0 0 -0.02 0.02 0 0 -0.02 0.02 0 0 -0.05 0.02 0 0 -0.02 0.02 0 0 -0.02 0.02 0 0 -0.05 0.02 0 0 -0.02 0.02 0 0 -0.02 0.02 0 0 -0.02 0.02 0 0 -0.05 0.02 0 0 -0.02 0.02 0 0 -0.05 0.02 0 0 -0.02 0.02 0 0 -0.02 0.02 0 0 -0.05 0.02 0 0 -0.02 0.02 0 0 -0.05 0.02 0 0 -0.05 0.02 0 0 -0.09 0.02 0 0 -0.16 -0.02 0 0 -0.07 -0.02 0 0 -0.05 -0.02 0 0 -0.05 -0.02 0 0 -0.02 -0.02 0 0 -0.02 -0.02 0 0 -0.02 -0.02 0 0 -0.02 -0.02 0 0 -0.02 -0.02 0 0 -0.02 -0.02 0 0 -0.02 -0.02 0 0 -0.02 -0.02 0 0 -0.02 -0.02 0 0 -0.02 -0.02 0 0 -0.02 -0.02 0 0 -0.02 -0.02 0 0 -0.02 -0.02 0 0 -0.02 -0.02 0 0 -0.02 -0.02 0 0 -0.02 -0.02 0 0 -0.02 -0.02 0 0 -0.02 -0.02 0 0 -0.02 -0.02 0 0 -0.02 -0.02 0 0 -0.02 -0.02 0 0 -0.02 -0.02 0 0 -0.02 -0.02 0 0 -0.02 -0.02 0 0 -0.02 -0.02 0 0 -0.02 -0.02 0 0 -0.02 -0.02 0 0 -0.02 -0.02 0 0 -0.02 -0.02 0 0 -0.02 -0.02 0 0 -0.02 -0.02 0 0 -0.02 -0.02 0 0 -0.02 -0.02 0 0 -0.02 -0.02 0 0 -0.02 -0.02 0 0 -0.02 -0.02 0 0 -0.02 -0.02 0 0 -0.02 -0.02 0 0 -0.02 -0.02 0 0 -0.02 -0.02 0 0 -0.02 -0.02 0 0 -0.02 -0.02 0 0 -0.02 -0.02 0 0 -0.02 -0.02 0 0 -0.02 -0.02 0 0 -0.02 -0.02 0 0 -0.02 -0.02 0 0 -0.02 -0.02 0 0 -0.02 -0.02 0 0 -0.02 -0.02 0 0 -0.02 -0.02 0 0 -0.02 -0.02 0 0 -0.02 -0.02 0 0 -0.02 -0.02 0 0 -0.02 -0.02 0 0 -0.07 0.02 0 0 -0.05 0.02 0 0 -0.05 0.02 0 0 -0.05 0.02 0 0 -0.02 0.02 0 0 -0.05 0.02 0 0 -0.05 0.02 0 0 -0.05 0.02 0 0 -0.02 0.02 0 0 -0.05 0.02 0 0 -0.05 0.02 0 0 -0.05 0.02 0 0 -0.05 0.02 0 0 -0.05 0.02 0 0 -0.05 0.02 0 0 -0.05 0.02 0 0 -0.05 0.02 0 0 -0.05 0.02 0 0 -0.05 0.02 0 0 -0.05 0.02 0 0 -0.05 0.02 0 0 -0.05 0.02 0 0 -0.07 0.02 0 0 -0.05 0.02 0 0 -0.05 0.02 0 0 -0.07 0.02 0 0 -0.05 0.02 0 0 -0.05 0.02 0 0 -0.07 0.02 0 0 -0.05 0.02 0 0 -0.07 0.02 0 0 -0.05 0.02 0 0 -0.07 0.02 0 0 -0.07 0.02 0 0 -0.07 0.02 0 0 -0.05 0.02 0 0 -0.07 0.02 0 0 -0.07 0.02 0 0 -0.07 0.02 0 0 -0.09 0.02 0 0 -0.07 0.02 0 0 -0.07 0.02 0 0 -0.09 0.02 0 0 -0.07 0.02 0 0 -0.09 0.02 0 0 -0.09 0.02 0 0 -0.07 1.86 0 0 -0.02 0.07 0 0 -0.02 0.05 0 0 -0.02 0.05 0 0 -0.02 0.02 0 0 -0.02 0.02 0 0 -0.02 0.02 0 0 -0.02 0.02 0 0 -0.05 0.02 0 0 -0.02 0.02 0 0 -0.05 0.02 0 0 -0.09 0.02 0 0 -0.16 0.02 0 0 -0.14 0.02 0 0 -0.18 0.02 0 0 -0.21 0.02 0 0 -0.28 0.02 0 0 -0.37 0.02 0 0 -1.17 -0.02 0 0 -0.3 -0.02 0 0 -0.25 -0.02 0 0 -0.23 -0.02 0 0 -0.16 -0.02 0 0 -0.16 -0.02 0 0 -0.14 -0.02 0 0 -0.11 -0.02 0 0 -0.05 -0.02 0 0 -0.05 -0.02 0 0 -0.02 -0.02 0 0 -0.02 -0.02 0 0 -0.02 -0.02 0 0 -0.02 -0.02 0 0 -0.02 -0.05 0 0 -0.02 -0.05 0 0 -0.02 -0.07 0 0 -0.02 -1.86 0 0 -0.07 -0.02 0 0 -0.09 -0.02 0 0 -0.09 -0.02 0 0 -0.07 -0.02 0 0 -0.09 -0.02 0 0 -0.07 -0.02 0 0 -0.07 -0.02 0 0 -0.09 -0.02 0 0 -0.07 -0.02 0 0 -0.07 -0.02 0 0 -0.07 -0.02 0 0 -0.05 -0.02 0 0 -0.07 -0.02 0 0 -0.07 -0.02 0 0 -0.07 -0.02 0 0 -0.05 -0.02 0 0 -0.07 -0.02 0 0 -0.05 -0.02 0 0 -0.07 -0.02 0 0 -0.05 -0.02 0 0 -0.05 -0.02 0 0 -0.07 -0.02 0 0 -0.05 -0.02 0 0 -0.05 -0.02 0 0 -0.07 -0.02 0 0 -0.05 -0.02 0 0 -0.05 -0.02 0 0 -0.05 -0.02 0 0 -0.05 -0.02 0 0 -0.05 -0.02 0 0 -0.05 -0.02 0 0 -0.05 -0.02 0 0 -0.05 -0.02 0 0 -0.05 -0.02 0 0 -0.05 -0.02 0 0 -0.05 -0.02 0 0 -0.05 -0.02 0 0 -0.05 -0.02 0 0 -0.02 -0.02 0 0 -0.05 -0.02 0 0 -0.05 -0.02 0 0 -0.05 -0.02 0 0 -0.02 -0.02 0 0 -0.05 -0.02 0 0 -0.05 -0.02 0 0 -0.05 -0.02 0 0 -0.07 0.02 0 0 -0.02 0.02 0 0 -0.02 0.02 0 0 -0.02 0.02 0 0 -0.02 0.02 0 0 -0.02 0.02 0 0 -0.02 0.02 0 0 -0.02 0.02 0 0 -0.02 0.02 0 0 -0.02 0.02 0 0 -0.02 0.02 0 0 -0.02 0.02 0 0 -0.02 0.02 0 0 -0.02 0.02 0 0 -0.02 0.02 0 0 -0.02 0.02 0 0 -0.02 0.02 0 0 -0.02 0.02 0 0 -0.02 0.02 0 0 -0.02 0.02 0 0 -0.02 0.02 0 0 -0.02 0.02 0 0 -0.02 0.02 0 0 -0.02 0.02 0 0 -0.02 0.02 0 0 -0.02 0.02 0 0 -0.02 0.02 0 0 -0.02 0.02 0 0 -0.02 0.02 0 0 -0.02 0.02 0 0 -0.02 0.02 0 0 -0.02 0.02 0 0 -0.02 0.02 0 0 -0.02 0.02 0 0 -0.02 0.02 0 0 -0.02 0.02 0 0 -0.02 0.02 0 0 -0.02 0.02 0 0 -0.02 0.02 0 0 -0.02 0.02 0 0 -0.02 0.02 0 0 -0.02 0.02 0 0 -0.02 0.02 0 0 -0.02 0.02 0 0 -0.02 0.02 0 0 -0.02 0.02 0 0 -0.02 0.02 0 0 -0.02 0.02 0 0 -0.02 0.02 0 0 -0.02 0.02 0 0 -0.02 0.02 0 0 -0.02 0.02 0 0 -0.02 0.02 0 0 -0.02 0.02 0 0 -0.02 0.02 0 0 -0.02 0.02 0 0 -0.05 0.02 0 0 -0.05 0.02 0 0 -0.09 0.02 0 0 -0.14 -0.02 0 0 -0.09 -0.02 0 0 -0.05 -0.02 0 0 -0.05 -0.02 0 0 -0.02 -0.02 0 0 -0.05 -0.02 0 0 -0.02 -0.02 0 0 -0.02 -0.02 0 0 -0.05 -0.02 0 0 -0.02 -0.02 0 0 -0.02 -0.02 0 0 -0.05 -0.02 0 0 -0.02 -0.02 0 0 -0.02 -0.02 0 0 -0.05 -0.02 0 0 -0.02 -0.02 0 0 -0.02 -0.02 0 0 -0.05 -0.02 0 0 -0.02 -0.02 0 0 -0.02 -0.02 0 0 -0.02 -0.02 0 0 -0.05 -0.02 0 0 -0.02 -0.02 0 0 -0.02 -0.02 0 0 -0.02 -0.02 0 0 -0.02 -0.02 0 0 -0.05 -0.02 0 0 -0.02 -0.02 0 0 -0.02 -0.02 0 0 -0.02 -0.02 0 0 -0.02 -0.02 0 0 -0.05 -0.02 0 0 -0.02 -0.02 0 0 -0.02 -0.02 0 0 -0.02 -0.02 0 0 -0.02 -0.02 0 0 -0.02 -0.02 0 0 -0.02 -0.02 0 0 -0.05 -0.02 0 0 -0.02 -0.02 0 0 -0.02 -0.02 0 0 -0.02 -0.02 0 0 -0.02 -0.02 0 0 -0.02 -0.02 0 0 -0.02 -0.02 0 0 -0.02 -0.02 0 0 -0.02 -0.02 0 0 -0.02 -0.02 0 0 -0.02 -0.02 0 0 -0.02 -0.02 0 0 -0.02 -0.02 0 0 -0.05 -0.02 0 0 -0.02 -0.02 0 0 -0.02 -0.02 0 0 -0.02 -0.02 0 0 -0.02 -0.05 0 0 -0.02 -0.02 0 0 -0.05 -0.02 0 0 -0.02 -0.02 0 0 -0.02 -0.05 0 0 -0.02 -0.02 0 0 -0.02 -0.02 0 0 -0.02 -0.02 0 0 -0.02 -0.02 0 0 -0.02 -0.02 0 0 -0.02 -0.02 0 0 -0.02 -0.02 0 0 -0.02 -0.02 0 0 -0.02 -0.02 0 0 -0.02 -0.02 0 0 -0.02 -0.02 0 0 -0.02 -0.02 0 0 -0.02 -0.02 0 0 -0.02 -0.02 0 0 -0.02 -0.05 0 0 -0.02 -0.02 0 0 -0.02 -0.02 0 0 -0.02 -0.02 0 0 -0.02 -0.02 0 0 -0.02 -0.02 0 0 -0.02 -0.02 0 0 -0.02 -0.02 0 0 -0.02 -0.05 0 0 -0.02 -0.02 0 0 -0.02 -0.02 0 0 -0.02 -0.02 0 0 -0.02 -0.05 0 0 -0.02 -0.02 0 0 -0.02 -0.02 0 0 -0.02 -0.02 0 0 -0.02 -0.02 0 0 -0.02 -0.05 0 0 -0.02 -0.02 0 0 -0.02 -0.02 0 0 -0.02 -0.02 0 0 -0.02 -0.05 0 0 -0.02 -0.02 0 0 -0.02 -0.02 0 0 -0.02 -0.05 0 0 -0.02 -0.02 0 0 -0.02 -0.02 0 0 -0.02 -0.05 0 0 -0.02 -0.02 0 0 -0.02 -0.02 0 0 -0.02 -0.05 0 0 -0.02 -0.02 0 0 -0.02 -0.02 0 0 -0.02 -0.05 0 0 -0.02 -0.02 0 0 -0.02 -0.05 0 0 -0.02 -0.05 0 0 -0.02 -0.09 0 0 -0.02 -0.16 0 0 0.02 -0.07 0 0 0.02 -0.05 0 0 0.02 -0.05 0 0 0.02 -0.02 0 0 0.02 -0.02 0 0 0.02 -0.02 0 0 0.02 -0.02 0 0 0.02 -0.02 0 0 0.02 -0.02 0 0 0.02 -0.02 0 0 0.02 -0.02 0 0 0.02 -0.02 0 0 0.02 -0.02 0 0 0.02 -0.02 0 0 0.02 -0.02 0 0 0.02 -0.02 0 0 0.02 -0.02 0 0 0.02 -0.02 0 0 0.02 -0.02 0 0 0.02 -0.02 0 0 0.02 -0.02 0 0 0.02 -0.02 0 0 0.02 -0.02 0 0 0.02 -0.02 0 0 0.02 -0.02 0 0 0.02 -0.02 0 0 0.02 -0.02 0 0 0.02 -0.02 0 0 0.02 -0.02 0 0 0.02 -0.02 0 0 0.02 -0.02 0 0 0.02 -0.02 0 0 0.02 -0.02 0 0 0.02 -0.02 0 0 0.02 -0.02 0 0 0.02 -0.02 0 0 0.02 -0.02 0 0 0.02 -0.02 0 0 0.02 -0.02 0 0 0.02 -0.02 0 0 0.02 -0.02 0 0 0.02 -0.02 0 0 0.02 -0.02 0 0 0.02 -0.02 0 0 0.02 -0.02 0 0 0.02 -0.02 0 0 0.02 -0.02 0 0 0.02 -0.02 0 0 0.02 -0.02 0 0 0.02 -0.02 0 0 0.02 -0.02 0 0 0.02 -0.02 0 0 0.02 -0.02 0 0 0.02 -0.02 0 0 0.02 -0.02 0 0 0.02 -0.02 0 0 0.02 -0.02 0 0 0.02 -0.02 0 0 0.02 -0.07 0 0 -0.02 -0.05 0 0 -0.02 -0.05 0 0 -0.02 -0.05 0 0 -0.02 -0.02 0 0 -0.02 -0.05 0 0 -0.02 -0.05 0 0 -0.02 -0.05 0 0 -0.02 -0.02 0 0 -0.02 -0.05 0 0 -0.02 -0.05 0 0 -0.02 -0.05 0 0 -0.02 -0.05 0 0 -0.02 -0.05 0 0 -0.02 -0.05 0 0 -0.02 -0.05 0 0 -0.02 -0.05 0 0 -0.02 -0.05 0 0 -0.02 -0.05 0 0 -0.02 -0.05 0 0 -0.02 -0.05 0 0 -0.02 -0.05 0 0 -0.02 -0.07 0 0 -0.02 -0.05 0 0 -0.02 -0.05 0 0 -0.02 -0.07 0 0 -0.02 -0.05 0 0 -0.02 -0.05 0 0 -0.02 -0.07 0 0 -0.02 -0.05 0 0 -0.02 -0.07 0 0 -0.02 -0.05 0 0 -0.02 -0.07 0 0 -0.02 -0.07 0 0 -0.02 -0.07 0 0 -0.02 -0.05 0 0 -0.02 -0.07 0 0 -0.02 -0.07 0 0 -0.02 -0.07 0 0 -0.02 -0.09 0 0 -0.02 -0.07 0 0 -0.02 -0.07 0 0 -0.02 -0.09 0 0 -0.02 -0.07 0 0 -0.02 -0.09 0 0 -0.02 -0.09 0 0 -0.02 -0.07 0 0 -1.86 -0.02 0 0 -0.07 -0.02 0 0 -0.05 -0.02 0 0 -0.05 -0.02 0 0 -0.02 -0.02 0 0 -0.02 -0.02 0 0 -0.02 -0.02 0 0 -0.02 -0.02 0 0 -0.02 -0.05 0 0 -0.02 -0.05 0 0 -0.02 -0.11 0 0 -0.02 -0.14 0 0 -0.02 -0.16 0 0 -0.02 -0.16 0 0 -0.02 -0.21 0 0 -0.02 -0.28 0 0 -0.02 -0.28 0 0 -0.02 -1.28 0 0 0.02zm5.07 6.61l-0.02 0 0 0.02 -0.02 0 0 0.02 -0.02 0 0 0.18 0.02 0 0 0.02 0.02 0 0 0.05 0.02 0 0 0.02 0.02 0 0 0.02 0.05 0 0 0.02 0.18 0 0 -0.02 0.05 0 0 -0.02 0.02 0 0 -0.02 0.02 0 0 -0.02 0.02 0 0 0.02 0.02 0 0 0.02 0.02 0 0 0.02 0.02 0 0 0.02 -0.02 0 0 0.05 -0.02 0 0 0.02 -0.02 0 0 0.02 -0.05 0 0 0.02 -0.05 0 0 0.02 -0.25 0 0 -0.02 -0.05 0 0 -0.05 -0.05 0 0 -0.02 -0.05 0 0 -0.05 -0.02 0 0 -0.02 -0.02 0 0 -0.05 -0.02 0 0 -0.07 -0.02 0 0 -0.18 0.02 0 0 -0.07 0.02 0 0 -0.02 0.02 0 0 -0.02 0.02 0 0 -0.05 0.02 0 0 -0.02 0.05 0 0 0.02 0.02 0 0 0.02 0.02 0 0 0.02 0.02 0 0 0.02 0.02 0 0 0.02 -0.05 0 0 0.02zm-4.93 -1.79l-0.28 0 0 0.02 -0.14 0 0 0.02 -0.18 0 0 0.02 -0.09 0 0 0.02 -0.14 0 0 0.02 -0.09 0 0 0.02 -0.11 0 0 0.02 -0.09 0 0 0.02 -0.09 0 0 0.02 -0.09 0 0 0.02 -0.07 0 0 0.02 -0.09 0 0 0.02 -0.07 0 0 0.02 -0.07 0 0 0.02 -0.07 0 0 0.02 -0.07 0 0 0.02 -0.05 0 0 0.02 -0.07 0 0 0.02 -0.07 0 0 0.02 -0.05 0 0 0.02 -0.07 0 0 0.02 -0.05 0 0 0.02 -0.05 0 0 0.02 -0.07 0 0 0.02 -0.05 0 0 0.02 -0.05 0 0 0.02 -0.05 0 0 0.02 -0.05 0 0 0.02 -0.05 0 0 0.02 -0.05 0 0 0.02 -0.05 0 0 0.02 -0.05 0 0 0.02 -0.05 0 0 0.02 -0.05 0 0 0.02 -0.05 0 0 0.02 -0.02 0 0 0.02 -0.05 0 0 0.02 -0.05 0 0 0.02 -0.05 0 0 0.02 -0.02 0 0 0.02 -0.05 0 0 0.02 -0.05 0 0 0.02 -0.02 0 0 0.02 -0.05 0 0 0.02 -0.02 0 0 0.02 -0.05 0 0 0.02 -0.02 0 0 0.02 -0.05 0 0 0.02 -0.02 0 0 0.02 -0.05 0 0 0.02 -0.02 0 0 0.02 -0.05 0 0 0.02 -0.02 0 0 0.02 -0.02 0 0 0.02 -0.05 0 0 0.02 -0.02 0 0 0.02 -0.05 0 0 0.02 -0.02 0 0 0.02 -0.02 0 0 0.02 -0.05 0 0 0.02 -0.02 0 0 0.02 -0.02 0 0 0.02 -0.02 0 0 0.02 -0.05 0 0 0.02 -0.02 0 0 0.02 -0.02 0 0 0.02 -0.02 0 0 0.02 -0.02 0 0 0.02 -0.05 0 0 0.02 -0.02 0 0 0.02 -0.02 0 0 0.02 -0.02 0 0 0.02 -0.02 0 0 0.02 -0.02 0 0 0.02 -0.02 0 0 0.02 -0.02 0 0 0.02 -0.02 0 0 0.02 -0.05 0 0 0.02 -0.02 0 0 0.02 -0.02 0 0 0.02 -0.02 0 0 0.02 -0.02 0 0 0.02 -0.02 0 0 0.02 -0.02 0 0 0.02 -0.02 0 0 0.02 -0.02 0 0 0.02 -0.02 0 0 0.02 -0.02 0 0 0.02 -0.02 0 0 0.02 -0.02 0 0 0.05 -0.02 0 0 0.02 -0.02 0 0 0.02 -0.02 0 0 0.02 -0.02 0 0 0.02 -0.02 0 0 0.02 -0.02 0 0 0.02 -0.02 0 0 0.02 -0.02 0 0 0.02 -0.02 0 0 0.05 -0.02 0 0 0.02 -0.02 0 0 0.02 -0.02 0 0 0.02 -0.02 0 0 0.02 -0.02 0 0 0.05 -0.02 0 0 0.02 -0.02 0 0 0.05 -0.02 0 0 0.09 -0.02 0 0 0.21 0.02 0 0 0.07 0.02 0 0 0.05 0.02 0 0 0.02 0.02 0 0 0.05 0.02 0 0 0.02 0.02 0 0 0.02 0.05 0 0 0.02 0.02 0 0 0.02 0.05 0 0 0.02 0.07 0 0 0.02 0.23 0 0 -0.02 0.07 0 0 -0.02 0.05 0 0 -0.02 0.05 0 0 -0.02 0.02 0 0 -0.02 0.02 0 0 -0.02 0.02 0 0 -0.02 0.02 0 0 -0.05 0.02 0 0 -0.02 0.02 0 0 -0.02 0.02 0 0 -0.02 0.02 0 0 -0.02 0.02 0 0 -0.02 0.02 0 0 -0.05 0.02 0 0 -0.02 0.02 0 0 -0.02 0.02 0 0 -0.02 0.02 0 0 -0.02 0.02 0 0 -0.02 0.02 0 0 -0.02 0.02 0 0 -0.02 0.02 0 0 -0.02 0.02 0 0 -0.02 0.02 0 0 -0.02 0.02 0 0 -0.02 0.02 0 0 -0.02 0.02 0 0 -0.02 0.02 0 0 -0.02 0.02 0 0 -0.02 0.02 0 0 -0.02 0.02 0 0 -0.02 0.02 0 0 -0.02 0.02 0 0 -0.02 0.02 0 0 -0.02 0.02 0 0 -0.02 0.05 0 0 -0.02 0.02 0 0 -0.02 0.02 0 0 -0.02 0.02 0 0 -0.02 0.02 0 0 -0.02 0.02 0 0 -0.02 0.05 0 0 -0.02 0.02 0 0 -0.02 0.02 0 0 -0.02 0.02 0 0 -0.02 0.05 0 0 -0.02 0.02 0 0 -0.02 0.02 0 0 -0.02 0.05 0 0 -0.02 0.02 0 0 -0.02 0.02 0 0 -0.02 0.05 0 0 -0.02 0.02 0 0 -0.02 0.05 0 0 -0.02 0.02 0 0 -0.02 0.05 0 0 -0.02 0.02 0 0 -0.02 0.05 0 0 -0.02 0.02 0 0 -0.02 0.05 0 0 -0.02 0.02 0 0 -0.02 0.05 0 0 -0.02 0.05 0 0 -0.02 0.02 0 0 -0.02 0.05 0 0 -0.02 0.05 0 0 -0.02 0.05 0 0 -0.02 0.02 0 0 -0.02 0.05 0 0 -0.02 0.05 0 0 -0.02 0.05 0 0 -0.02 0.05 0 0 -0.02 0.05 0 0 -0.02 0.05 0 0 -0.02 0.05 0 0 -0.02 0.05 0 0 -0.02 0.07 0 0 -0.02 0.05 0 0 -0.02 0.05 0 0 -0.02 0.07 0 0 -0.02 0.05 0 0 -0.02 0.07 0 0 -0.02 0.07 0 0 -0.02 0.05 0 0 -0.02 0.07 0 0 -0.02 0.07 0 0 -0.02 0.07 0 0 -0.02 0.09 0 0 -0.02 0.07 0 0 -0.02 0.09 0 0 -0.02 0.09 0 0 -0.02 0.09 0 0 -0.02 0.11 0 0 -0.02 0.11 0 0 -0.02 0.14 0 0 -0.02 0.11 0 0 -0.02 0.25 0 0 -0.02 0.28 0 0 -0.02 0.55 0 0 0.02 0.28 0 0 0.02 0.23 0 0 0.02 0.11 0 0 0.02 0.14 0 0 0.02 0.14 0 0 0.02 0.11 0 0 0.02 0.07 0 0 0.02 0.11 0 0 0.02 0.07 0 0 0.02 0.09 0 0 0.02 0.07 0 0 0.02 0.07 0 0 0.02 0.07 0 0 0.02 0.07 0 0 0.02 0.07 0 0 0.02 0.07 0 0 0.02 0.05 0 0 0.02 0.07 0 0 0.02 0.05 0 0 0.02 0.07 0 0 0.02 0.05 0 0 0.02 0.05 0 0 0.02 0.07 0 0 0.02 0.05 0 0 0.02 0.05 0 0 0.02 0.05 0 0 0.02 0.05 0 0 0.02 0.05 0 0 0.02 0.05 0 0 0.02 0.05 0 0 0.02 0.02 0 0 0.02 0.05 0 0 0.02 0.05 0 0 0.02 0.05 0 0 0.02 0.02 0 0 0.02 0.05 0 0 0.02 0.05 0 0 0.02 0.02 0 0 0.02 0.05 0 0 0.02 0.02 0 0 0.02 0.05 0 0 0.02 0.02 0 0 0.02 0.05 0 0 0.02 0.02 0 0 0.02 0.05 0 0 0.02 0.02 0 0 0.02 0.05 0 0 0.02 0.02 0 0 0.02 0.02 0 0 0.02 0.05 0 0 0.02 0.02 0 0 0.02 0.02 0 0 0.02 0.05 0 0 0.02 0.02 0 0 0.02 0.02 0 0 0.02 0.02 0 0 0.02 0.05 0 0 0.02 0.02 0 0 0.02 0.02 0 0 0.02 0.02 0 0 0.02 0.02 0 0 0.02 0.02 0 0 0.02 0.05 0 0 0.02 0.02 0 0 0.02 0.02 0 0 0.02 0.02 0 0 0.02 0.02 0 0 0.02 0.02 0 0 0.02 0.02 0 0 0.02 0.02 0 0 0.02 0.02 0 0 0.02 0.02 0 0 0.02 0.02 0 0 0.02 0.02 0 0 0.02 0.02 0 0 0.02 0.02 0 0 0.02 0.02 0 0 0.02 0.02 0 0 0.02 0.02 0 0 0.02 0.02 0 0 0.02 0.02 0 0 0.02 0.02 0 0 0.02 0.02 0 0 0.02 0.02 0 0 0.05 0.02 0 0 0.02 0.02 0 0 0.02 0.02 0 0 0.02 0.02 0 0 0.02 0.02 0 0 0.02 0.02 0 0 0.05 0.02 0 0 0.02 0.02 0 0 0.02 0.02 0 0 0.02 0.02 0 0 0.02 0.05 0 0 0.02 0.05 0 0 0.02 0.07 0 0 0.02 0.23 0 0 -0.02 0.07 0 0 -0.02 0.05 0 0 -0.02 0.02 0 0 -0.02 0.05 0 0 -0.02 0.02 0 0 -0.02 0.02 0 0 -0.05 0.02 0 0 -0.02 0.02 0 0 -0.05 0.02 0 0 -0.07 0.02 0 0 -0.21 -0.02 0 0 -0.09 -0.02 0 0 -0.05 -0.02 0 0 -0.02 -0.02 0 0 -0.05 -0.02 0 0 -0.02 -0.02 0 0 -0.02 -0.02 0 0 -0.02 -0.02 0 0 -0.02 -0.02 0 0 -0.05 -0.02 0 0 -0.02 -0.02 0 0 -0.02 -0.02 0 0 -0.02 -0.02 0 0 -0.02 -0.02 0 0 -0.02 -0.02 0 0 -0.02 -0.02 0 0 -0.02 -0.02 0 0 -0.02 -0.02 0 0 -0.05 -0.02 0 0 -0.02 -0.02 0 0 -0.02 -0.02 0 0 -0.02 -0.02 0 0 -0.02 -0.02 0 0 -0.02 -0.02 0 0 -0.02 -0.02 0 0 -0.02 -0.02 0 0 -0.02 -0.02 0 0 -0.02 -0.02 0 0 -0.02 -0.02 0 0 -0.02 -0.02 0 0 -0.02 -0.05 0 0 -0.02 -0.02 0 0 -0.02 -0.02 0 0 -0.02 -0.02 0 0 -0.02 -0.02 0 0 -0.02 -0.02 0 0 -0.02 -0.02 0 0 -0.02 -0.02 0 0 -0.02 -0.02 0 0 -0.02 -0.05 0 0 -0.02 -0.02 0 0 -0.02 -0.02 0 0 -0.02 -0.02 0 0 -0.02 -0.02 0 0 -0.02 -0.05 0 0 -0.02 -0.02 0 0 -0.02 -0.02 0 0 -0.02 -0.02 0 0 -0.02 -0.05 0 0 -0.02 -0.02 0 0 -0.02 -0.02 0 0 -0.02 -0.05 0 0 -0.02 -0.02 0 0 -0.02 -0.02 0 0 -0.02 -0.05 0 0 -0.02 -0.02 0 0 -0.02 -0.05 0 0 -0.02 -0.02 0 0 -0.02 -0.05 0 0 -0.02 -0.02 0 0 -0.02 -0.02 0 0 -0.02 -0.05 0 0 -0.02 -0.05 0 0 -0.02 -0.02 0 0 -0.02 -0.05 0 0 -0.02 -0.02 0 0 -0.02 -0.05 0 0 -0.02 -0.05 0 0 -0.02 -0.02 0 0 -0.02 -0.05 0 0 -0.02 -0.05 0 0 -0.02 -0.05 0 0 -0.02 -0.02 0 0 -0.02 -0.05 0 0 -0.02 -0.05 0 0 -0.02 -0.05 0 0 -0.02 -0.05 0 0 -0.02 -0.05 0 0 -0.02 -0.05 0 0 -0.02 -0.05 0 0 -0.02 -0.05 0 0 -0.02 -0.05 0 0 -0.02 -0.05 0 0 -0.02 -0.07 0 0 -0.02 -0.05 0 0 -0.02 -0.05 0 0 -0.02 -0.05 0 0 -0.02 -0.07 0 0 -0.02 -0.07 0 0 -0.02 -0.05 0 0 -0.02 -0.07 0 0 -0.02 -0.07 0 0 -0.02 -0.05 0 0 -0.02 -0.07 0 0 -0.02 -0.07 0 0 -0.02 -0.07 0 0 -0.02 -0.09 0 0 -0.02 -0.07 0 0 -0.02 -0.09 0 0 -0.02 -0.09 0 0 -0.02 -0.09 0 0 -0.02 -0.11 0 0 -0.02 -0.09 0 0 -0.02 -0.14 0 0 -0.02 -0.09 0 0 -0.02 -0.18 0 0 -0.02 -0.18 0 0 -0.02 -0.28 0 0 -0.02 -0.96 0 0 0.02zm-4.22 10.97l-0.05 0 0 0.02 -0.02 0 0 0.02 -0.02 0 0 0.02 -0.02 0 0 0.02 -0.05 0 0 -0.02 -0.02 0 0 -0.02 -0.02 0 0 -0.02 -0.02 0 0 -0.05 0.02 0 0 -0.02 0.02 0 0 -0.02 0.02 0 0 -0.02 0.02 0 0 -0.02 0.07 0 0 -0.02 0.07 0 0 -0.02 0.14 0 0 0.02 0.07 0 0 0.02 0.05 0 0 0.02 0.02 0 0 0.02 0.05 0 0 0.02 0.02 0 0 0.02 0.02 0 0 0.02 0.02 0 0 0.05 0.05 0 0 0.02 0.02 0 0 0.02 0.02 0 0 0.02 0.02 0 0 0.02 0.02 0 0 0.02 0.02 0 0 0.07 -0.02 0 0 0.02 -0.02 0 0 0.02 -0.07 0 0 -0.02 -0.02 0 0 -0.02 -0.02 0 0 -0.02 -0.02 0 0 -0.02 -0.02 0 0 -0.02 -0.02 0 0 -0.02 -0.02 0 0 -0.02 -0.02 0 0 -0.02 -0.02 0 0 -0.02 -0.02 0 0 -0.02 -0.02 0 0 -0.02 -0.02 0 0 -0.02 -0.05 0 0 -0.02 -0.14 0 0 0.02zm0.78 -0.16l0 0.05 0.02 0 0 0.02 0.02 0 0 0.02 0.02 0 0 0.02 -0.07 0 0 0.02 -0.02 0 0 0.02 -0.25 0 0 -0.02 -0.05 0 0 -0.02 -0.02 0 0 -0.02 -0.05 0 0 -0.02 -0.02 0 0 -0.02 -0.02 0 0 -0.05 -0.02 0 0 -0.02 -0.02 0 0 -0.07 -0.02 0 0 -0.21 0.02 0 0 -0.07 0.02 0 0 -0.02 0.05 0 0 0.02 0.02 0 0 0.02 0.02 0 0 0.02 0.02 0 0 0.05 -0.02 0 0 0.16 0.02 0 0 0.05 0.02 0 0 0.02 0.02 0 0 0.02 0.02 0 0 0.02 0.05 0 0 0.02 0.18 0 0 -0.02 0.05 0zm0 0l0 -0.02 -0.02 0 0 -0.02 -0.02 0 0 -0.02 -0.02 0 0 -0.02 -0.02 0 0 -0.02 -0.02 0 0 -0.02 -0.02 0 0 -0.02 -0.02 0 0 -0.02 -0.02 0 0 -0.02 -0.02 0 0 -0.02 -0.02 0 0 -0.02 -0.02 0 0 -0.02 -0.02 0 0 -0.02 -0.02 0 0 -0.02 -0.02 0 0 -0.02 -0.02 0 0 -0.02 -0.02 0 0 -0.05 -0.02 0 0 -0.02 -0.02 0 0 -0.02 -0.02 0 0 -0.02 -0.02 0 0 -0.02 -0.02 0 0 -0.02 -0.02 0 0 -0.05 -0.02 0 0 -0.02 -0.02 0 0 -0.02 -0.02 0 0 -0.02 -0.02 0 0 -0.02 -0.05 0 0 -0.02 -0.05 0 0 -0.02 -0.05 0 0 -0.02 -0.25 0 0 0.02 -0.07 0 0 0.02 -0.05 0 0 0.02 -0.02 0 0 0.02 -0.05 0 0 0.02 -0.02 0 0 0.02 -0.02 0 0 0.05 -0.02 0 0 0.02 -0.02 0 0 0.05 -0.02 0 0 0.07 -0.02 0 0 0.21 0.02 0 0 0.09 0.02 0 0 0.05 0.02 0 0 0.02 0.02 0 0 0.05 0.02 0 0 0.02 0.02 0 0 0.02 0.02 0 0 0.02 0.02 0 0 0.02 0.02 0 0 0.05 0.02 0 0 0.02 0.02 0 0 0.02 0.02 0 0 0.02 0.02 0 0 0.02 0.02 0 0 0.02 0.02 0 0 0.02 0.02 0 0 0.02 0.02 0 0 0.02 0.02 0 0 0.05 0.02 0 0 0.02 0.02 0 0 0.02 0.02 0 0 0.02 0.02 0 0 0.02 0.02 0 0 0.02 0.02 0 0 0.02 0.02 0 0 0.02 0.02 0 0 0.02 0.02 0 0 0.02 0.02 0 0 0.02 0.02 0 0 0.02 0.02 0 0 0.02 0.02 0 0 0.02 0.05 0 0 0.02 0.02 0 0 0.02 0.02 0 0 0.02 0.02 0 0 0.02 0.02 0 0 0.02 0.02 0 0 0.02 0.02 0 0 0.02 0.02 0 0 0.02 0.05 0 0 0.02 0.02 0 0 0.02 0.02 0 0 0.02 0.02 0 0 0.02 0.02 0 0 0.02 0.05 0 0 0.02 0.02 0 0 0.02 0.02 0 0 0.02 0.02 0 0 0.02 0.05 0 0 0.02 0.02 0 0 0.02 0.02 0 0 0.02 0.05 0 0 0.02 0.02 0 0 0.02 0.02 0 0 0.02 0.05 0 0 0.02 0.02 0 0 0.02 0.05 0 0 0.02 0.02 0 0 0.02 0.05 0 0 0.02 0.02 0 0 0.02 0.02 0 0 0.02 0.05 0 0 0.02 0.05 0 0 0.02 0.02 0 0 0.02 0.05 0 0 0.02 0.02 0 0 0.02 0.05 0 0 0.02 0.05 0 0 0.02 0.02 0 0 0.02 0.05 0 0 0.02 0.05 0 0 0.02 0.05 0 0 0.02 0.02 0 0 0.02 0.05 0 0 0.02 0.05 0 0 0.02 0.05 0 0 0.02 0.05 0 0 0.02 0.05 0 0 0.02 0.05 0 0 0.02 0.05 0 0 0.02 0.05 0 0 0.02 0.05 0 0 0.02 0.05 0 0 0.02 0.07 0 0 0.02 0.05 0 0 0.02 0.05 0 0 0.02 0.07 0 0 0.02 0.05 0 0 0.02 0.07 0 0 0.02 0.05 0 0 0.02 0.07 0 0 0.02 0.07 0 0 0.02 0.05 0 0 0.02 0.07 0 0 0.02 0.07 0 0 0.02 0.07 0 0 0.02 0.09 0 0 0.02 0.07 0 0 0.02 0.09 0 0 0.02 0.09 0 0 0.02 0.09 0 0 0.02 0.11 0 0 0.02 0.09 0 0 0.02 0.14 0 0 0.02 0.09 0 0 0.02 0.18 0 0 0.02 0.18 0 0 0.02 0.28 0 0 0.02 0.96 0 0 -0.02 0.28 0 0 -0.02 0.14 0 0 -0.02 0.18 0 0 -0.02 0.09 0 0 -0.02 0.14 0 0 -0.02 0.09 0 0 -0.02 0.11 0 0 -0.02 0.09 0 0 -0.02 0.09 0 0 -0.02 0.09 0 0 -0.02 0.07 0 0 -0.02 0.09 0 0 -0.02 0.07 0 0 -0.02 0.07 0 0 -0.02 0.07 0 0 -0.02 0.07 0 0 -0.02 0.05 0 0 -0.02 0.07 0 0 -0.02 0.07 0 0 -0.02 0.05 0 0 -0.02 0.07 0 0 -0.02 0.05 0 0 -0.02 0.05 0 0 -0.02 0.07 0 0 -0.02 0.05 0 0 -0.02 0.05 0 0 -0.02 0.05 0 0 -0.02 0.05 0 0 -0.02 0.05 0 0 -0.02 0.05 0 0 -0.02 0.05 0 0 -0.02 0.05 0 0 -0.02 0.05 0 0 -0.02 0.05 0 0 -0.02 0.05 0 0 -0.02 0.02 0 0 -0.02 0.05 0 0 -0.02 0.05 0 0 -0.02 0.05 0 0 -0.02 0.02 0 0 -0.02 0.05 0 0 -0.02 0.05 0 0 -0.02 0.02 0 0 -0.02 0.05 0 0 -0.02 0.02 0 0 -0.02 0.05 0 0 -0.02 0.02 0 0 -0.02 0.05 0 0 -0.02 0.02 0 0 -0.02 0.05 0 0 -0.02 0.02 0 0 -0.02 0.05 0 0 -0.02 0.02 0 0 -0.02 0.02 0 0 -0.02 0.05 0 0 -0.02 0.02 0 0 -0.02 0.05 0 0 -0.02 0.02 0 0 -0.02 0.02 0 0 -0.02 0.05 0 0 -0.02 0.02 0 0 -0.02 0.02 0 0 -0.02 0.02 0 0 -0.02 0.05 0 0 -0.02 0.02 0 0 -0.02 0.02 0 0 -0.02 0.02 0 0 -0.02 0.02 0 0 -0.02 0.05 0 0 -0.02 0.02 0 0 -0.02 0.02 0 0 -0.02 0.02 0 0 -0.02 0.02 0 0 -0.02 0.02 0 0 -0.02 0.02 0 0 -0.02 0.02 0 0 -0.02 0.02 0 0 -0.02 0.05 0 0 -0.02 0.02 0 0 -0.02 0.02 0 0 -0.02 0.02 0 0 -0.02 0.02 0 0 -0.02 0.02 0 0 -0.02 0.02 0 0 -0.02 0.02 0 0 -0.02 0.02 0 0 -0.02 0.02 0 0 -0.02 0.02 0 0 -0.02 0.02 0 0 -0.02 0.02 0 0 -0.05 0.02 0 0 -0.02 0.02 0 0 -0.02 0.02 0 0 -0.02 0.02 0 0 -0.02 0.02 0 0 -0.02 0.02 0 0 -0.02 0.02 0 0 -0.02 0.02 0 0 -0.02 0.02 0 0 -0.05 0.02 0 0 -0.02 0.02 0 0 -0.02 0.02 0 0 -0.02 0.02 0 0 -0.02 0.02 0 0 -0.05 0.02 0 0 -0.02 0.02 0 0 -0.05 0.02 0 0 -0.09 0.02 0 0 -0.21 -0.02 0 0 -0.07 -0.02 0 0 -0.05 -0.02 0 0 -0.02 -0.02 0 0 -0.05 -0.02 0 0 -0.02 -0.02 0 0 -0.02 -0.05 0 0 -0.02 -0.02 0 0 -0.02 -0.05 0 0 -0.02 -0.07 0 0 -0.02 -0.23 0 0 0.02 -0.07 0 0 0.02 -0.05 0 0 0.02 -0.05 0 0 0.02 -0.02 0 0 0.02 -0.02 0 0 0.02 -0.02 0 0 0.02 -0.02 0 0 0.05 -0.02 0 0 0.02 -0.02 0 0 0.02 -0.02 0 0 0.02 -0.02 0 0 0.02 -0.02 0 0 0.02 -0.02 0 0 0.05 -0.02 0 0 0.02 -0.02 0 0 0.02 -0.02 0 0 0.02 -0.02 0 0 0.02 -0.02 0 0 0.02 -0.02 0 0 0.02 -0.02 0 0 0.02 -0.02 0 0 0.02 -0.02 0 0 0.02 -0.02 0 0 0.02 -0.02 0 0 0.02 -0.02 0 0 0.02 -0.02 0 0 0.02 -0.02 0 0 0.02 -0.02 0 0 0.02 -0.02 0 0 0.02 -0.02 0 0 0.02 -0.02 0 0 0.02 -0.02 0 0 0.02 -0.02 0 0 0.02 -0.02 0 0 0.02 -0.05 0 0 0.02 -0.02 0 0 0.02 -0.02 0 0 0.02 -0.02 0 0 0.02 -0.02 0 0 0.02 -0.02 0 0 0.02 -0.05 0 0 0.02 -0.02 0 0 0.02 -0.02 0 0 0.02 -0.02 0 0 0.02 -0.05 0 0 0.02 -0.02 0 0 0.02 -0.02 0 0 0.02 -0.05 0 0 0.02 -0.02 0 0 0.02 -0.02 0 0 0.02 -0.05 0 0 0.02 -0.02 0 0 0.02 -0.05 0 0 0.02 -0.02 0 0 0.02 -0.05 0 0 0.02 -0.02 0 0 0.02 -0.05 0 0 0.02 -0.02 0 0 0.02 -0.05 0 0 0.02 -0.02 0 0 0.02 -0.05 0 0 0.02 -0.05 0 0 0.02 -0.02 0 0 0.02 -0.05 0 0 0.02 -0.05 0 0 0.02 -0.05 0 0 0.02 -0.02 0 0 0.02 -0.05 0 0 0.02 -0.05 0 0 0.02 -0.05 0 0 0.02 -0.05 0 0 0.02 -0.05 0 0 0.02 -0.05 0 0 0.02 -0.05 0 0 0.02 -0.05 0 0 0.02 -0.07 0 0 0.02 -0.05 0 0 0.02 -0.05 0 0 0.02 -0.07 0 0 0.02 -0.05 0 0 0.02 -0.07 0 0 0.02 -0.07 0 0 0.02 -0.05 0 0 0.02 -0.07 0 0 0.02 -0.07 0 0 0.02 -0.07 0 0 0.02 -0.09 0 0 0.02 -0.07 0 0 0.02 -0.09 0 0 0.02 -0.09 0 0 0.02 -0.09 0 0 0.02 -0.11 0 0 0.02 -0.11 0 0 0.02 -0.14 0 0 0.02 -0.11 0 0 0.02 -0.21 0 0 0.02 -0.34 0 0 0.02 -0.53 0 0 -0.02 -0.28 0 0 -0.02 -0.23 0 0 -0.02 -0.11 0 0 -0.02 -0.14 0 0 -0.02 -0.14 0 0 -0.02 -0.11 0 0 -0.02 -0.07 0 0 -0.02 -0.11 0 0 -0.02 -0.07 0 0 -0.02 -0.09 0 0 -0.02 -0.07 0 0 -0.02 -0.07 0 0 -0.02 -0.07 0 0 -0.02 -0.07 0 0 -0.02 -0.07 0 0 -0.02 -0.07 0 0 -0.02 -0.05 0 0 -0.02 -0.07 0 0 -0.02 -0.05 0 0 -0.02 -0.07 0 0 -0.02 -0.05 0 0 -0.02 -0.05 0 0 -0.02 -0.07 0 0 -0.02 -0.05 0 0 -0.02 -0.05 0 0 -0.02 -0.05 0 0 -0.02 -0.05 0 0 -0.02 -0.05 0 0 -0.02 -0.05 0 0 -0.02 -0.05 0 0 -0.02 -0.02 0 0 -0.02 -0.05 0 0 -0.02 -0.05 0 0 -0.02 -0.05 0 0 -0.02 -0.02 0 0 -0.02 -0.05 0 0 -0.02 -0.05 0 0 -0.02 -0.02 0 0 -0.02 -0.05 0 0 -0.02 -0.02 0 0 -0.02 -0.05 0 0 -0.02 -0.02 0 0 -0.02 -0.05 0 0 -0.02 -0.02 0 0 -0.02 -0.05 0 0 -0.02 -0.02 0 0 -0.02 -0.05 0 0 -0.02 -0.02 0 0 -0.02 -0.02 0 0 -0.02 -0.05 0 0 -0.02 -0.02 0 0 -0.02 -0.02 0 0 -0.02 -0.05 0 0 -0.02 -0.02 0 0 -0.02 -0.02 0 0 -0.02 -0.02 0 0 -0.02 -0.05 0 0 -0.02 -0.02 0 0 -0.02 -0.02 0 0 -0.02 -0.02 0 0 -0.02 -0.02 0 0 -0.02 -0.05 0 0 -0.02 -0.02 0 0 -0.02 -0.02 0 0 -0.02 -0.02 0 0 -0.02 -0.02 0 0 -0.02 -0.02 0 0 -0.02 -0.02 0zm7.62 -5.34l1.15 0 0 2.29 -1.15 0 0 -2.29zm-0.57 -0.89l-0.07 0 0 0.02 -0.05 0 0 0.02 -0.02 0 0 0.02 -0.05 0 0 0.02 -0.02 0 0 0.02 -0.02 0 0 0.02 -0.02 0 0 0.02 -0.02 0 0 0.05 -0.02 0 0 0.05 -0.02 0 0 0.07 -0.02 0 0 3.44 0.02 0 0 0.07 0.02 0 0 0.05 0.02 0 0 0.05 0.02 0 0 0.02 0.02 0 0 0.02 0.02 0 0 0.02 0.02 0 0 0.02 0.05 0 0 0.02 0.02 0 0 0.02 0.05 0 0 0.02 0.07 0 0 0.02 2.29 0 0 -0.02 0.07 0 0 -0.02 0.05 0 0 -0.02 0.02 0 0 -0.02 0.05 0 0 -0.02 0.02 0 0 -0.02 0.02 0 0 -0.02 0.02 0 0 -0.05 0.02 0 0 -0.02 0.02 0 0 -0.05 0.02 0 0 -0.07 0.02 0 0 -3.44 -0.02 0 0 -0.07 -0.02 0 0 -0.05 -0.02 0 0 -0.02 -0.02 0 0 -0.05 -0.02 0 0 -0.02 -0.02 0 0 -0.02 -0.02 0 0 -0.02 -0.05 0 0 -0.02 -0.02 0 0 -0.02 -0.05 0 0 -0.02 -0.07 0 0 -0.02 -2.29 0 0 0.02zm-8.49 0l-0.07 0 0 0.02 -0.05 0 0 0.02 -0.02 0 0 0.02 -0.05 0 0 0.02 -0.02 0 0 0.02 -0.02 0 0 0.02 -0.02 0 0 0.05 -0.02 0 0 0.02 -0.02 0 0 0.05 -0.02 0 0 0.09 -0.02 0 0 1.79 0.02 0 0 0.09 0.02 0 0 0.05 0.02 0 0 0.02 0.02 0 0 0.05 0.02 0 0 0.02 0.02 0 0 0.02 0.02 0 0 0.02 0.05 0 0 0.02 0.02 0 0 0.02 0.05 0 0 0.02 0.09 0 0 0.02 1.7 0 0 0.69 -1.72 0 0 0.02 -0.07 0 0 0.02 -0.05 0 0 0.02 -0.02 0 0 0.02 -0.05 0 0 0.02 -0.02 0 0 0.02 -0.02 0 0 0.02 -0.02 0 0 0.05 -0.02 0 0 0.02 -0.02 0 0 0.05 -0.02 0 0 0.09 -0.02 0 0 0.21 0.02 0 0 0.07 0.02 0 0 0.05 0.02 0 0 0.02 0.02 0 0 0.05 0.02 0 0 0.02 0.02 0 0 0.02 0.02 0 0 0.02 0.05 0 0 0.02 0.02 0 0 0.02 0.05 0 0 0.02 0.07 0 0 0.02 2.29 0 0 -0.02 0.07 0 0 -0.02 0.05 0 0 -0.02 0.02 0 0 -0.02 0.05 0 0 -0.02 0.02 0 0 -0.02 0.02 0 0 -0.02 0.02 0 0 -0.05 0.02 0 0 -0.02 0.02 0 0 -0.05 0.02 0 0 -0.07 0.02 0 0 -1.84 -0.02 0 0 -0.07 -0.02 0 0 -0.05 -0.02 0 0 -0.02 -0.02 0 0 -0.05 -0.02 0 0 -0.02 -0.02 0 0 -0.02 -0.02 0 0 -0.02 -0.05 0 0 -0.02 -0.02 0 0 -0.02 -0.05 0 0 -0.02 -0.07 0 0 -0.02 -1.72 0 0 -0.69 1.7 0 0 -0.02 0.09 0 0 -0.02 0.05 0 0 -0.02 0.05 0 0 -0.02 0.02 0 0 -0.02 0.02 0 0 -0.02 0.02 0 0 -0.02 0.02 0 0 -0.02 0.02 0 0 -0.05 0.02 0 0 -0.05 0.02 0 0 -0.07 0.02 0 0 -0.23 -0.02 0 0 -0.07 -0.02 0 0 -0.05 -0.02 0 0 -0.05 -0.02 0 0 -0.02 -0.02 0 0 -0.02 -0.02 0 0 -0.02 -0.02 0 0 -0.02 -0.02 0 0 -0.02 -0.05 0 0 -0.02 -0.05 0 0 -0.02 -0.07 0 0 -0.02 -2.29 0 0 0.02zm4.36 0l-0.07 0 0 0.02 -0.05 0 0 0.02 -0.02 0 0 0.02 -0.05 0 0 0.02 -0.02 0 0 0.02 -0.02 0 0 0.02 -0.02 0 0 0.05 -0.02 0 0 0.02 -0.02 0 0 0.05 -0.02 0 0 0.07 -0.02 0 0 3.44 0.02 0 0 0.07 0.02 0 0 0.05 0.02 0 0 0.02 0.02 0 0 0.05 0.02 0 0 0.02 0.02 0 0 0.02 0.02 0 0 0.02 0.05 0 0 0.02 0.02 0 0 0.02 0.05 0 0 0.02 0.07 0 0 0.02 2.06 0 0 -0.02 0.07 0 0 -0.02 0.05 0 0 -0.02 0.05 0 0 -0.02 0.02 0 0 -0.02 0.02 0 0 -0.02 0.02 0 0 -0.02 0.02 0 0 -0.05 0.02 0 0 -0.02 0.02 0 0 -0.05 0.02 0 0 -0.07 0.02 0 0 -0.21 -0.02 0 0 -0.09 -0.02 0 0 -0.05 -0.02 0 0 -0.02 -0.02 0 0 -0.05 -0.02 0 0 -0.02 -0.02 0 0 -0.02 -0.02 0 0 -0.02 -0.05 0 0 -0.02 -0.02 0 0 -0.02 -0.05 0 0 -0.02 -0.07 0 0 -0.02 -1.49 0 0 -0.69 1.03 0 0 -0.02 0.07 0 0 -0.02 0.05 0 0 -0.02 0.02 0 0 -0.02 0.05 0 0 -0.02 0.02 0 0 -0.02 0.02 0 0 -0.02 0.02 0 0 -0.05 0.02 0 0 -0.02 0.02 0 0 -0.05 0.02 0 0 -0.07 0.02 0 0 -0.23 -0.02 0 0 -0.07 -0.02 0 0 -0.05 -0.02 0 0 -0.02 -0.02 0 0 -0.05 -0.02 0 0 -0.02 -0.02 0 0 -0.02 -0.02 0 0 -0.02 -0.05 0 0 -0.02 -0.02 0 0 -0.02 -0.05 0 0 -0.02 -0.07 0 0 -0.02 -1.03 0 0 -0.69 1.49 0 0 -0.02 0.07 0 0 -0.02 0.05 0 0 -0.02 0.02 0 0 -0.02 0.05 0 0 -0.02 0.02 0 0 -0.02 0.02 0 0 -0.02 0.02 0 0 -0.05 0.02 0 0 -0.02 0.02 0 0 -0.05 0.02 0 0 -0.09 0.02 0 0 -0.21 -0.02 0 0 -0.07 -0.02 0 0 -0.05 -0.02 0 0 -0.02 -0.02 0 0 -0.05 -0.02 0 0 -0.02 -0.02 0 0 -0.02 -0.02 0 0 -0.02 -0.02 0 0 -0.02 -0.05 0 0 -0.02 -0.05 0 0 -0.02 -0.07 0 0 -0.02 -2.06 0 0 0.02zm5.37 -2.89l-0.02 0 0 0.05 -0.02 0 0 0.02 -0.02 0 0 0.02 -0.02 0 0 0.07 -0.02 0 0 0.18 0.02 0 0 0.07 0.02 0 0 0.05 0.02 0 0 0.02 0.02 0 0 0.05 0.05 0 0 0.02 0.05 0 0 0.05 0.05 0 0 0.02 0.25 0 0 -0.02 0.05 0 0 -0.02 0.05 0 0 -0.02 0.02 0 0 -0.02 0.02 0 0 -0.05 0.02 0 0 -0.02 -0.02 0 0 -0.02 -0.02 0 0 -0.02 -0.02 0 0 -0.02 -0.02 0 0 0.02 -0.02 0 0 0.02 -0.02 0 0 0.02 -0.05 0 0 0.02 -0.18 0 0 -0.02 -0.05 0 0 -0.02 -0.02 0 0 -0.02 -0.02 0 0 -0.05 -0.02 0 0 -0.02 -0.02 0 0 -0.18 0.02 0 0 -0.02 0.02 0 0 -0.02 0.02 0 0 -0.02 0.05 0 0 -0.02 -0.02 0 0 -0.02 -0.02 0 0 -0.02 -0.02 0 0 -0.02 -0.02 0 0 -0.02 -0.05 0 0 0.02zm-9.06 9.15l-0.07 0 0 0.02 -0.07 0 0 0.02 -0.02 0 0 0.02 -0.02 0 0 0.02 -0.02 0 0 0.02 -0.02 0 0 0.05 0.02 0 0 0.02 0.02 0 0 0.02 0.02 0 0 0.02 0.05 0 0 -0.02 0.02 0 0 -0.02 0.02 0 0 -0.02 0.02 0 0 -0.02 0.05 0 0 -0.02 0.14 0 0 0.02 0.05 0 0 0.02 0.02 0 0 0.02 0.02 0 0 0.02 0.02 0 0 0.02 0.02 0 0 0.02 0.02 0 0 0.02 0.02 0 0 0.02 0.02 0 0 0.02 0.02 0 0 0.02 0.02 0 0 0.02 0.02 0 0 0.02 0.02 0 0 0.02 0.07 0 0 -0.02 0.02 0 0 -0.02 0.02 0 0 -0.07 -0.02 0 0 -0.02 -0.02 0 0 -0.02 -0.02 0 0 -0.02 -0.02 0 0 -0.02 -0.02 0 0 -0.02 -0.05 0 0 -0.05 -0.02 0 0 -0.02 -0.02 0 0 -0.02 -0.02 0 0 -0.02 -0.05 0 0 -0.02 -0.02 0 0 -0.02 -0.05 0 0 -0.02 -0.07 0 0 -0.02 -0.14 0 0 0.02zm0.78 -0.02l-0.05 0 0 0.02 -0.18 0 0 -0.02 -0.05 0 0 -0.02 -0.02 0 0 -0.02 -0.02 0 0 -0.02 -0.02 0 0 -0.05 -0.02 0 0 -0.16 0.02 0 0 -0.05 -0.02 0 0 -0.02 -0.02 0 0 -0.02 -0.02 0 0 -0.02 -0.05 0 0 0.02 -0.02 0 0 0.07 -0.02 0 0 0.21 0.02 0 0 0.07 0.02 0 0 0.02 0.02 0 0 0.05 0.02 0 0 0.02 0.02 0 0 0.02 0.05 0 0 0.02 0.02 0 0 0.02 0.05 0 0 0.02 0.25 0 0 -0.02 0.02 0 0 -0.02 0.07 0 0 -0.02 -0.02 0 0 -0.02 -0.02 0 0 -0.02 -0.02 0 0 -0.05zm-1.77 -12.76l0.02 0 0 0.02 0.02 0 0 0.02 0.02 0 0 0.02 0.02 0 0 0.02 0.02 0 0 0.02 0.02 0 0 0.02 0.02 0 0 0.02 0.02 0 0 0.02 0.02 0 0 0.02 0.02 0 0 0.02 0.02 0 0 0.02 0.02 0 0 0.02 0.02 0 0 0.02 0.02 0 0 0.02 0.02 0 0 0.02 0.02 0 0 0.02 0.02 0 0 0.02 0.02 0 0 0.02 0.05 0 0 0.05 0.05 0 0 0.05 0.05 0 0 0.02 0.02 0 0 -0.21 -0.05 0 0 -0.02 -0.02 0 0 -0.02 -0.02 0 0 -0.02 -0.02 0 0 -0.05 -0.05 0 0 -0.05 -0.02 0 0 -0.02 -0.02 0 0 -0.02 -0.02 0 0 -0.02 -0.02 0 0 -0.02 -0.05 0 0 -0.02 -0.02 0 0 -0.05 -0.05 0 0 -0.05 -0.02 0 0 -0.02 -0.18 0 0 0.07zm13.76 13.74l0.02 0 0 0.05 0.02 0 0 0.02 0.02 0 0 0.02 0.02 0 0 0.02 0.02 0 0 0.02 0.02 0 0 0.02 0.02 0 0 0.02 0.02 0 0 0.02 0.02 0 0 0.02 0.02 0 0 0.02 0.02 0 0 0.02 0.02 0 0 0.02 0.02 0 0 0.02 0.02 0 0 0.02 0.02 0 0 0.02 0.02 0 0 0.02 0.02 0 0 0.02 0.02 0 0 0.02 0.05 0 0 0.05 0.02 0 0 0.02 0.05 0 0 0.02 0.02 0 0 0.02 0.02 0 0 0.02 0.02 0 0 -0.18 -0.02 0 0 -0.05 -0.05 0 0 -0.02 -0.02 0 0 -0.02 -0.02 0 0 -0.02 -0.02 0 0 -0.02 -0.02 0 0 -0.02 -0.02 0 0 -0.02 -0.02 0 0 -0.05 -0.02 0 0 -0.02 -0.02 0 0 -0.02 -0.02 0 0 -0.02 -0.02 0 0 -0.02 -0.02 0 0 -0.02 -0.02 0 0 -0.02 -0.02 0 0 -0.02 -0.02 0 0 -0.02 -0.21 0 0 0.02z"/>
 </g>
</svg>
