<?xml version="1.0" encoding="UTF-8"?>
<!DOCTYPE svg PUBLIC "-//W3C//DTD SVG 1.1//EN" "http://www.w3.org/Graphics/SVG/1.1/DTD/svg11.dtd">
<!-- Creator: CorelDRAW -->
<svg xmlns="http://www.w3.org/2000/svg" xml:space="preserve" width="10.9717mm" height="5.5308mm" version="1.1" style="shape-rendering:geometricPrecision; text-rendering:geometricPrecision; image-rendering:optimizeQuality; fill-rule:evenodd; clip-rule:evenodd"
viewBox="0 0 164.52 82.94"
 xmlns:xlink="http://www.w3.org/1999/xlink"
 xmlns:xodm="http://www.corel.com/coreldraw/odm/2003">
 <defs>
  <style type="text/css">
   <![CDATA[
    .fil0 {fill:#FEFEFE;fill-rule:nonzero}
   ]]>
  </style>
 </defs>
 <g id="Camada_x0020_1">
  <metadata id="CorelCorpID_0Corel-Layer"/>
  <path class="fil0" d="M4.04 29.78l0.01 0 -0.08 -0.08 0.07 0.08zm23.76 49.1l0 0.01 0.08 0.07 -0.08 -0.08zm-2.58 -22.77l-24.2 -24.2 0.03 -0.03c-0.07,-0.09 -0.14,-0.19 -0.21,-0.29 -0.18,-0.28 -0.34,-0.57 -0.46,-0.87 -0.13,-0.31 -0.22,-0.63 -0.29,-0.95 -0.07,-0.33 -0.1,-0.65 -0.1,-0.98 0,-0.65 0.13,-1.31 0.38,-1.93 0.25,-0.6 0.61,-1.15 1.09,-1.63l23.75 -23.76c0.24,-0.24 0.49,-0.44 0.76,-0.62 0.27,-0.18 0.57,-0.34 0.88,-0.46 0.31,-0.13 0.63,-0.22 0.95,-0.29 0.33,-0.07 0.66,-0.1 0.98,-0.1 0.65,0 1.31,0.13 1.93,0.38 0.6,0.25 1.16,0.61 1.63,1.09l23.94 23.94 0 0.01c0.16,0.18 0.31,0.37 0.44,0.57 0.18,0.27 0.34,0.57 0.46,0.87 0.13,0.31 0.22,0.63 0.29,0.95 0.07,0.32 0.1,0.65 0.1,0.98l0 0.63 -0.05 0c-0.06,0.44 -0.17,0.88 -0.34,1.29 -0.13,0.31 -0.28,0.6 -0.46,0.88 -0.18,0.27 -0.39,0.53 -0.62,0.76l-5.23 5.23 -5.16 -5.15 3.65 -3.65 -20.58 -20.58 -20.58 20.58 20.58 20.58 3.65 -3.65 5.15 5.15 -5.23 5.23c-0.23,0.23 -0.49,0.44 -0.76,0.62 -0.28,0.18 -0.57,0.34 -0.88,0.46 -0.31,0.13 -0.63,0.22 -0.94,0.28 -0.12,0.02 -0.23,0.04 -0.35,0.06l0 0.05 -0.63 0c-0.33,0 -0.65,-0.03 -0.98,-0.1 -0.32,-0.07 -0.64,-0.16 -0.95,-0.29 -0.31,-0.13 -0.6,-0.28 -0.88,-0.46 -0.27,-0.18 -0.53,-0.39 -0.76,-0.62zm0.46 25.75l-0.03 0.03 -24.18 -24.18c-0.23,-0.23 -0.44,-0.49 -0.62,-0.76 -0.18,-0.27 -0.34,-0.57 -0.46,-0.88 -0.13,-0.31 -0.22,-0.63 -0.29,-0.95 -0.07,-0.33 -0.1,-0.65 -0.1,-0.98l0 -0.63 0.05 0c0.01,-0.12 0.03,-0.23 0.06,-0.35 0.06,-0.32 0.16,-0.63 0.28,-0.94 0.13,-0.31 0.28,-0.6 0.46,-0.88 0.18,-0.27 0.39,-0.53 0.62,-0.76l5.23 -5.23 5.15 5.15 -3.65 3.65 20.58 20.58 20.58 -20.58 -20.58 -20.58 -3.65 3.65 -5.15 -5.15 5.23 -5.23c0.23,-0.23 0.49,-0.44 0.76,-0.62 0.27,-0.18 0.57,-0.34 0.88,-0.46 0.31,-0.13 0.63,-0.22 0.95,-0.29 0.11,-0.02 0.23,-0.04 0.35,-0.05l0 -0.05 0.63 0c0.33,0 0.66,0.03 0.98,0.1 0.31,0.06 0.63,0.16 0.94,0.29 0.31,0.12 0.6,0.28 0.87,0.46 0.2,0.13 0.39,0.28 0.57,0.44l0.02 0 23.94 23.94c0.24,0.24 0.44,0.49 0.62,0.76 0.18,0.27 0.34,0.57 0.46,0.88 0.13,0.31 0.22,0.63 0.28,0.94 0.02,0.12 0.04,0.23 0.06,0.35l0.05 0 0 0.63c0,0.33 -0.03,0.65 -0.1,0.98 -0.07,0.32 -0.16,0.64 -0.29,0.95 -0.13,0.31 -0.28,0.6 -0.46,0.88 -0.18,0.27 -0.39,0.53 -0.62,0.76l-23.75 23.75c-0.48,0.48 -1.04,0.84 -1.63,1.09 -0.62,0.26 -1.28,0.39 -1.93,0.39 -0.32,0 -0.65,-0.03 -0.98,-0.1 -0.32,-0.06 -0.64,-0.16 -0.95,-0.29 -0.3,-0.12 -0.59,-0.28 -0.87,-0.46 -0.11,-0.07 -0.21,-0.14 -0.31,-0.22zm46.74 -34.21c1.3,0.98 2.8,1.68 4.49,2.09 0.94,0.24 1.82,0.36 2.62,0.36 0.5,0 0.98,-0.05 1.42,-0.14 1.54,-0.34 2.31,-1.15 2.31,-2.43l0 -0.04c-0.02,-0.76 -0.39,-1.4 -1.11,-1.93 -0.72,-0.53 -1.37,-0.96 -1.96,-1.3 -0.96,-0.52 -1.92,-1.03 -2.88,-1.52 -0.48,-0.25 -0.96,-0.5 -1.44,-0.76 -0.48,-0.25 -0.95,-0.51 -1.42,-0.78 -1.39,-0.78 -2.41,-1.69 -3.08,-2.75 -0.56,-0.87 -0.84,-1.8 -0.84,-2.79 0,-0.09 0,-0.18 0.01,-0.28 0.05,-1.42 0.51,-2.69 1.38,-3.81 0.8,-1.04 1.87,-1.84 3.2,-2.4 1.09,-0.45 2.26,-0.69 3.52,-0.73 0.19,-0.01 0.38,-0.01 0.57,-0.01 1.36,0 2.68,0.15 3.95,0.47 0.78,0.2 1.53,0.45 2.25,0.75 0.73,0.3 1.47,0.64 2.23,1.02l-0.01 4.35 -4.69 0 0 -1.5c-0.76,-0.33 -1.56,-0.56 -2.39,-0.69 -0.4,-0.06 -0.78,-0.09 -1.15,-0.09 -0.43,0 -0.86,0.04 -1.27,0.11 -1.64,0.3 -2.46,1.02 -2.46,2.14l0 0.12c0,0.46 0.18,0.85 0.51,1.17 0.34,0.32 0.7,0.59 1.09,0.82 0.61,0.39 1.27,0.77 1.96,1.15 0.7,0.38 1.41,0.76 2.14,1.14 0.55,0.3 1.1,0.61 1.64,0.92 0.54,0.31 1.06,0.63 1.55,0.95 1.45,0.97 2.49,1.96 3.11,2.98 0.55,0.93 0.81,1.99 0.81,3.19 0,0.16 -0,0.33 -0.01,0.51 -0.13,1.61 -0.67,2.94 -1.63,4.01 -0.82,0.9 -1.89,1.58 -3.21,2.03 -0.79,0.26 -1.61,0.44 -2.46,0.54 -0.66,0.08 -1.29,0.13 -1.89,0.13 -0.17,0 -0.35,-0.01 -0.52,-0.01 -1.7,-0.08 -3.35,-0.4 -4.96,-0.97 -1.53,-0.52 -2.86,-1.19 -3.97,-1.99l2.59 -4.01zm28.1 1.94l-1.73 0 0 4.61 8.14 0.06 0 -4.66 -1.73 0 0 -16.07 1.73 0 0 -4.69 -8.14 0 0 4.69 1.73 0 0 16.07zm16.6 -20.76l16.46 0c0.57,0 1.06,0.2 1.47,0.61 0.41,0.41 0.61,0.9 0.61,1.47l0 4.11 -4.49 0 0 -1.53 -7.82 0 0 5.7 7.82 0 0 4.69 -7.82 0 0 10.36 -4.71 0 0 -20.76 -1.51 0 0 -4.66zm28.73 0l16.46 0c0.57,0 1.06,0.2 1.47,0.61 0.41,0.41 0.62,0.9 0.62,1.47l0 4.11 -4.49 0 0 -1.53 -7.84 0 0 5.7 7.84 0 0 4.69 -7.84 0 0 5.66 7.84 0 0 -1.53 4.49 0 0 4.14c0,0.58 -0.21,1.08 -0.62,1.48 -0.41,0.4 -0.9,0.61 -1.47,0.61l-12.85 0c-0.58,0 -1.07,-0.2 -1.48,-0.61 -0.4,-0.41 -0.61,-0.9 -0.61,-1.48l0 -18.67 -1.52 0 0 -4.66zm-39.65 33.69l-2.83 4.57 -2.83 -4.57 -1.83 0 0 8.89 1.71 0 0 -5.89 2.67 4.31 0.57 0 2.65 -4.31 0 5.89 1.73 0 0 -8.89 -1.84 0zm11.34 0l0 8.89 1.71 0 0 -8.89 -1.71 0zm1.03 -2.88l-0.83 1.78 1.3 0 1.23 -1.78 -1.7 0zm12.95 2.88l-2.77 0 0 8.89 2.77 0c2.96,0 4.72,-1.83 4.72,-4.44 0,-2.62 -1.76,-4.44 -4.72,-4.44zm0 7.29l-1.04 0 0 -5.69 1.04 0c1.61,0 3,0.86 3,2.84 0,1.98 -1.38,2.84 -3,2.84zm13.91 -7.29l0 8.89 1.72 0 0 -8.89 -1.72 0zm17.26 8.89l1.83 0 -3.2 -8.89 -2.11 0 -3.2 8.89 1.83 0 0.6 -1.76 3.66 0 0.6 1.76zm-3.73 -3.3l1.31 -3.85 1.31 3.85 -2.61 0z"/>
 </g>
</svg>
