<?xml version="1.0" encoding="UTF-8"?>
<!DOCTYPE svg PUBLIC "-//W3C//DTD SVG 1.1//EN" "http://www.w3.org/Graphics/SVG/1.1/DTD/svg11.dtd">
<!-- Creator: CorelDRAW -->
<svg xmlns="http://www.w3.org/2000/svg" xml:space="preserve" width="9.094mm" height="4.5842mm" version="1.1" style="shape-rendering:geometricPrecision; text-rendering:geometricPrecision; image-rendering:optimizeQuality; fill-rule:evenodd; clip-rule:evenodd"
viewBox="0 0 182.69 92.09"
 xmlns:xlink="http://www.w3.org/1999/xlink"
 xmlns:xodm="http://www.corel.com/coreldraw/odm/2003">
 <defs>
  <style type="text/css">
   <![CDATA[
    .fil0 {fill:#373435;fill-rule:nonzero}
   ]]>
  </style>
 </defs>
 <g id="Camada_x0020_1">
  <metadata id="CorelCorpID_0Corel-Layer"/>
  <path class="fil0" d="M4.49 33.07l0 0 -0.09 -0.09 0.08 0.09zm26.38 54.52l0 0.01 0.09 0.08 -0.09 -0.09zm-2.86 -25.29l-26.88 -26.87 0.04 -0.04c-0.08,-0.1 -0.16,-0.21 -0.23,-0.32 -0.2,-0.31 -0.38,-0.63 -0.51,-0.97 -0.14,-0.34 -0.25,-0.7 -0.32,-1.05 -0.07,-0.36 -0.11,-0.73 -0.11,-1.09 0,-0.73 0.14,-1.46 0.43,-2.15 0.27,-0.66 0.68,-1.28 1.21,-1.81l26.38 -26.38c0.27,-0.26 0.55,-0.49 0.85,-0.69 0.31,-0.2 0.63,-0.37 0.97,-0.51 0.34,-0.14 0.7,-0.25 1.05,-0.32 0.37,-0.07 0.74,-0.11 1.09,-0.11 0.73,0 1.46,0.14 2.15,0.43 0.66,0.28 1.28,0.68 1.82,1.21l26.58 26.58 0 0.02c0.18,0.2 0.34,0.41 0.49,0.63 0.2,0.31 0.37,0.63 0.51,0.97 0.14,0.34 0.25,0.7 0.32,1.05 0.07,0.36 0.11,0.73 0.11,1.09l0 0.71 -0.05 0c-0.06,0.49 -0.19,0.97 -0.38,1.43 -0.14,0.34 -0.32,0.67 -0.52,0.97 -0.2,0.31 -0.43,0.59 -0.69,0.85l-5.81 5.81 -5.72 -5.72 4.05 -4.05 -22.85 -22.85 -22.85 22.85 22.85 22.85 4.05 -4.05 5.72 5.72 -5.81 5.81c-0.26,0.26 -0.54,0.49 -0.85,0.69 -0.31,0.2 -0.63,0.37 -0.98,0.51 -0.34,0.14 -0.7,0.25 -1.05,0.32 -0.13,0.02 -0.26,0.04 -0.39,0.06l0 0.05 -0.7 0c-0.36,0 -0.73,-0.04 -1.09,-0.11 -0.36,-0.07 -0.71,-0.18 -1.05,-0.32 -0.34,-0.14 -0.67,-0.31 -0.97,-0.51 -0.3,-0.2 -0.59,-0.43 -0.85,-0.69zm0.51 28.59l-0.03 0.03 -26.85 -26.85c-0.26,-0.26 -0.49,-0.54 -0.69,-0.85 -0.2,-0.31 -0.37,-0.63 -0.51,-0.98 -0.14,-0.34 -0.25,-0.7 -0.32,-1.05 -0.07,-0.36 -0.11,-0.72 -0.11,-1.08l0 -0.71 0.05 0c0.02,-0.13 0.04,-0.26 0.06,-0.39 0.07,-0.35 0.18,-0.7 0.32,-1.05 0.14,-0.34 0.31,-0.67 0.51,-0.97 0.2,-0.31 0.43,-0.59 0.69,-0.85l5.81 -5.81 5.72 5.72 -4.05 4.05 22.85 22.85 22.85 -22.85 -22.85 -22.85 -4.05 4.05 -5.72 -5.72 5.81 -5.81c0.26,-0.26 0.54,-0.49 0.85,-0.69 0.31,-0.2 0.63,-0.38 0.97,-0.52 0.35,-0.14 0.7,-0.25 1.05,-0.32 0.13,-0.02 0.25,-0.04 0.38,-0.06l0 -0.05 0.71 0c0.36,0 0.73,0.04 1.09,0.11 0.35,0.07 0.7,0.18 1.05,0.32 0.34,0.14 0.66,0.31 0.97,0.51 0.22,0.14 0.43,0.31 0.63,0.49l0.02 0 26.58 26.58c0.26,0.26 0.49,0.55 0.69,0.85 0.2,0.31 0.38,0.63 0.52,0.98 0.14,0.35 0.25,0.7 0.32,1.05 0.03,0.13 0.05,0.26 0.06,0.39l0.05 0 0 0.71c0,0.36 -0.04,0.73 -0.11,1.08 -0.07,0.36 -0.18,0.71 -0.32,1.05 -0.14,0.34 -0.32,0.67 -0.52,0.98 -0.2,0.3 -0.43,0.59 -0.69,0.85l-26.38 26.38c-0.53,0.53 -1.15,0.94 -1.81,1.21 -0.69,0.29 -1.42,0.43 -2.15,0.43 -0.35,0 -0.72,-0.04 -1.09,-0.11 -0.36,-0.07 -0.71,-0.18 -1.05,-0.32 -0.34,-0.14 -0.66,-0.31 -0.97,-0.51 -0.12,-0.08 -0.23,-0.16 -0.35,-0.25zm51.9 -37.99c1.44,1.08 3.11,1.86 4.98,2.33 1.05,0.27 2.02,0.4 2.91,0.4 0.56,0 1.08,-0.06 1.58,-0.16 1.71,-0.38 2.57,-1.28 2.57,-2.7l0 -0.04c-0.02,-0.84 -0.43,-1.55 -1.23,-2.14 -0.79,-0.58 -1.52,-1.06 -2.18,-1.45 -1.07,-0.58 -2.13,-1.15 -3.2,-1.69 -0.53,-0.28 -1.07,-0.56 -1.6,-0.84 -0.53,-0.28 -1.06,-0.57 -1.57,-0.87 -1.54,-0.86 -2.68,-1.88 -3.42,-3.05 -0.62,-0.96 -0.94,-2 -0.94,-3.1 0,-0.1 0.01,-0.2 0.02,-0.31 0.05,-1.58 0.57,-2.99 1.54,-4.23 0.89,-1.15 2.08,-2.04 3.55,-2.67 1.21,-0.5 2.51,-0.76 3.91,-0.81 0.21,-0.01 0.42,-0.02 0.63,-0.02 1.51,0 2.97,0.17 4.39,0.52 0.86,0.22 1.7,0.5 2.5,0.84 0.81,0.34 1.63,0.71 2.47,1.13l-0.02 4.83 -5.2 0 0 -1.67c-0.85,-0.36 -1.74,-0.62 -2.66,-0.77 -0.44,-0.07 -0.86,-0.1 -1.28,-0.1 -0.48,0 -0.95,0.04 -1.42,0.13 -1.82,0.34 -2.73,1.13 -2.73,2.37l0 0.13c0.01,0.51 0.2,0.95 0.57,1.29 0.37,0.35 0.78,0.66 1.21,0.91 0.68,0.43 1.4,0.85 2.18,1.27 0.78,0.42 1.56,0.84 2.37,1.26 0.61,0.33 1.22,0.67 1.82,1.02 0.6,0.35 1.18,0.7 1.72,1.06 1.62,1.07 2.77,2.18 3.46,3.31 0.61,1.03 0.9,2.21 0.9,3.54 0,0.18 -0.01,0.37 -0.01,0.57 -0.14,1.79 -0.74,3.27 -1.81,4.45 -0.91,1 -2.1,1.75 -3.56,2.26 -0.88,0.29 -1.79,0.49 -2.73,0.6 -0.73,0.09 -1.43,0.14 -2.1,0.14 -0.19,0 -0.39,-0.01 -0.58,-0.02 -1.89,-0.09 -3.72,-0.45 -5.51,-1.08 -1.7,-0.58 -3.17,-1.32 -4.41,-2.21l2.87 -4.45zm31.2 2.15l-1.92 0 0 5.11 9.04 0.07 0 -5.18 -1.92 0 0 -17.84 1.92 0 0 -5.21 -9.04 0 0 5.21 1.92 0 0 17.84zm18.44 -23.05l18.27 0c0.63,0 1.18,0.22 1.63,0.68 0.45,0.45 0.68,1 0.68,1.63l0 4.57 -4.99 0 0 -1.7 -8.68 0 0 6.33 8.68 0 0 5.22 -8.68 0 0 11.51 -5.24 0 0 -23.05 -1.68 0 0 -5.18zm31.9 0l18.27 0c0.63,0 1.18,0.22 1.64,0.68 0.46,0.45 0.69,1 0.69,1.63l0 4.57 -4.99 0 0 -1.7 -8.7 0 0 6.33 8.7 0 0 5.22 -8.7 0 0 6.28 8.7 0 0 -1.7 4.99 0 0 4.6c0,0.64 -0.23,1.2 -0.69,1.65 -0.46,0.45 -1,0.68 -1.64,0.68l-14.27 0c-0.64,0 -1.19,-0.22 -1.64,-0.68 -0.45,-0.45 -0.67,-1 -0.67,-1.65l0 -20.73 -1.69 0 0 -5.18zm-44.03 37.41l-3.14 5.07 -3.15 -5.07 -2.03 0 0 9.87 1.9 0 0 -6.54 2.96 4.78 0.63 0 2.95 -4.78 0 6.54 1.92 0 0 -9.87 -2.05 0zm12.6 0l0 9.87 1.9 0 0 -9.87 -1.9 0zm1.14 -3.2l-0.92 1.97 1.44 0 1.37 -1.97 -1.89 0zm14.38 3.2l-3.07 0 0 9.87 3.07 0c3.28,0 5.24,-2.03 5.24,-4.93 0,-2.9 -1.96,-4.93 -5.24,-4.93zm0 8.09l-1.16 0 0 -6.32 1.16 0c1.79,0 3.33,0.96 3.33,3.16 0,2.2 -1.54,3.16 -3.33,3.16zm15.44 -8.09l0 9.87 1.9 0 0 -9.87 -1.9 0zm19.16 9.87l2.03 0 -3.55 -9.87 -2.34 0 -3.55 9.87 2.03 0 0.66 -1.96 4.06 0 0.66 1.96zm-4.14 -3.66l1.45 -4.27 1.45 4.27 -2.9 0z"/>
 </g>
</svg>
